<svg xmlns="http://www.w3.org/2000/svg" width="1001.5946044921875" height="645.0847778320312" viewBox="-171.822021484375 -314.9578857421875 1001.5946044921875 645.0847778320312"><title>Neo4j Graph Visualization</title><desc>Created using Neo4j (http://www.neo4j.com/)</desc><g class="layer relationships"><g class="relationship" transform="translate(-135.32202054489676 293.6268876024486) rotate(359.42297860443296)"><path class="outline" fill="#68BDF6" stroke="none" d="M 32.5 0.5 L 60.19238010658307 0.5 L 60.19238010658307 -0.5 L 32.5 -0.5 Z M 83.98925510658307 0.5 L 111.68163521316615 0.5 L 111.68163521316615 3.5 L 118.68163521316615 0 L 111.68163521316615 -3.5 L 111.68163521316615 -0.5 L 83.98925510658307 -0.5 Z"/><text text-anchor="middle" pointer-events="none" font-size="8px" fill="#000000" x="72.09081760658307" y="3" font-family="sans-serif">2085</text></g><g class="relationship" transform="translate(26.61603818419347 175.67963975894293) rotate(455.2822847818536)"><path class="outline" fill="#68BDF6" stroke="none" d="M 32.5 0.5 L 43.06219998946168 0.5 L 43.06219998946168 -0.5 L 32.5 -0.5 Z M 66.85907498946167 0.5 L 77.42127497892336 0.5 L 77.42127497892336 3.5 L 84.42127497892336 0 L 77.42127497892336 -3.5 L 77.42127497892336 -0.5 L 66.85907498946167 -0.5 Z"/><text text-anchor="middle" pointer-events="none" font-size="8px" fill="#000000" x="54.96063748946168" y="3" transform="rotate(180 54.96063748946168 0)" font-family="sans-serif">4047</text></g><g class="relationship" transform="translate(26.61603818419347 175.67963975894293) rotate(223.2802557395778)"><path class="outline" fill="#68BDF6" stroke="none" d="M 32.5 0.5 L 65.83805405687322 0.5 L 65.83805405687322 -0.5 L 32.5 -0.5 Z M 89.63492905687322 0.5 L 122.97298311374644 0.5 L 122.97298311374644 3.5 L 129.97298311374644 0 L 122.97298311374644 -3.5 L 122.97298311374644 -0.5 L 89.63492905687322 -0.5 Z"/><text text-anchor="middle" pointer-events="none" font-size="8px" fill="#000000" x="77.73649155687322" y="3" transform="rotate(180 77.73649155687322 0)" font-family="sans-serif">4532</text></g><g class="relationship" transform="translate(-91.66576375017715 64.29343965750283) rotate(302.03015519675347)"><path class="outline" fill="#68BDF6" stroke="none" d="M 32.5 0.5 L 49.082787522994025 0.5 L 49.082787522994025 -0.5 L 32.5 -0.5 Z M 72.87966252299402 0.5 L 89.46245004598805 0.5 L 89.46245004598805 3.5 L 96.46245004598805 0 L 89.46245004598805 -3.5 L 89.46245004598805 -0.5 L 72.87966252299402 -0.5 Z"/><text text-anchor="middle" pointer-events="none" font-size="8px" fill="#000000" x="60.981225022994025" y="3" font-family="sans-serif">2541</text></g><g class="relationship" transform="translate(-23.268526243431836 -45.036937746537234) rotate(326.8292454548829)"><path class="outline" fill="#68BDF6" stroke="none" d="M 32.5 0.5 L 47.03733177838121 0.5 L 47.03733177838121 -0.5 L 32.5 -0.5 Z M 70.8342067783812 0.5 L 85.37153855676242 0.5 L 85.37153855676242 3.5 L 92.37153855676242 0 L 85.37153855676242 -3.5 L 85.37153855676242 -0.5 L 70.8342067783812 -0.5 Z"/><text text-anchor="middle" pointer-events="none" font-size="8px" fill="#000000" x="58.93576927838121" y="3" font-family="sans-serif">3068</text></g><g class="relationship" transform="translate(81.2544080218588 -113.35865723680429) rotate(406.53841532912816)"><path class="outline" fill="#68BDF6" stroke="none" d="M 32.5 0.5 L 36.51541601172617 0.5 L 36.51541601172617 -0.5 L 32.5 -0.5 Z M 60.31229101172617 0.5 L 64.32770702345233 0.5 L 64.32770702345233 3.5 L 71.32770702345233 0 L 64.32770702345233 -3.5 L 64.32770702345233 -0.5 L 60.31229101172617 -0.5 Z"/><text text-anchor="middle" pointer-events="none" font-size="8px" fill="#000000" x="48.41385351172617" y="3" font-family="sans-serif">3709</text></g><g class="relationship" transform="translate(152.6741731261278 -37.9967975317858) rotate(458.98194817840886)"><path class="outline" fill="#68BDF6" stroke="none" d="M 32.5 0.5 L 40.99030253093076 0.5 L 40.99030253093076 -0.5 L 32.5 -0.5 Z M 64.78717753093076 0.5 L 73.27748006186152 0.5 L 73.27748006186152 3.5 L 80.27748006186152 0 L 73.27748006186152 -3.5 L 73.27748006186152 -0.5 L 64.78717753093076 -0.5 Z"/><text text-anchor="middle" pointer-events="none" font-size="8px" fill="#000000" x="52.88874003093076" y="3" transform="rotate(180 52.88874003093076 0)" font-family="sans-serif">3529</text></g><g class="relationship" transform="translate(172.81667367857858 176.35163380110856) rotate(249.86372837499061)"><path class="outline" fill="#68BDF6" stroke="none" d="M 32.5 0.5 L 39.42979364341112 0.5 L 39.42979364341112 -0.5 L 32.5 -0.5 Z M 63.22666864341112 0.5 L 70.15646228682223 0.5 L 70.15646228682223 3.5 L 77.15646228682223 0 L 70.15646228682223 -3.5 L 70.15646228682223 -0.5 L 63.22666864341112 -0.5 Z"/><text text-anchor="middle" pointer-events="none" font-size="8px" fill="#000000" x="51.32823114341112" y="3" transform="rotate(180 51.32823114341112 0)" font-family="sans-serif">5172</text></g><g class="relationship" transform="translate(278.20429995990014 202.85619058024952) rotate(194.1168825358281)"><path class="outline" fill="#68BDF6" stroke="none" d="M 32.5 0.5 L 38.936273558563215 0.5 L 38.936273558563215 -0.5 L 32.5 -0.5 Z M 62.733148558563215 0.5 L 69.16942211712643 0.5 L 69.16942211712643 3.5 L 76.16942211712643 0 L 69.16942211712643 -3.5 L 69.16942211712643 -0.5 L 62.733148558563215 -0.5 Z"/><text text-anchor="middle" pointer-events="none" font-size="8px" fill="#000000" x="50.834711058563215" y="3" transform="rotate(180 50.834711058563215 0)" font-family="sans-serif">6132</text></g><g class="relationship" transform="translate(278.20429995990014 202.85619058024952) rotate(346.1892525713205)"><path class="outline" fill="#68BDF6" stroke="none" d="M 32.5 0.5 L 40.82196031463063 0.5 L 40.82196031463063 -0.5 L 32.5 -0.5 Z M 64.61883531463063 0.5 L 72.94079562926126 0.5 L 72.94079562926126 3.5 L 79.94079562926126 0 L 72.94079562926126 -3.5 L 72.94079562926126 -0.5 L 64.61883531463063 -0.5 Z"/><text text-anchor="middle" pointer-events="none" font-size="8px" fill="#000000" x="52.72039781463063" y="3" font-family="sans-serif">5781</text></g><g class="relationship" transform="translate(387.39437812509766 176.01481669552908) rotate(310.748372121639)"><path class="outline" fill="#68BDF6" stroke="none" d="M 32.5 0.5 L 37.66773443239939 0.5 L 37.66773443239939 -0.5 L 32.5 -0.5 Z M 61.46460943239939 0.5 L 66.63234386479878 0.5 L 66.63234386479878 3.5 L 73.63234386479878 0 L 66.63234386479878 -3.5 L 66.63234386479878 -0.5 L 61.46460943239939 -0.5 Z"/><text text-anchor="middle" pointer-events="none" font-size="8px" fill="#000000" x="49.56617193239939" y="3" font-family="sans-serif">4995</text></g><g class="relationship" transform="translate(476.8343744892661 -14.615918412921651) rotate(460.3662985976308)"><path class="outline" fill="#68BDF6" stroke="none" d="M 32.5 0.5 L 40.62938736270723 0.5 L 40.62938736270723 -0.5 L 32.5 -0.5 Z M 64.42626236270723 0.5 L 72.55564972541445 0.5 L 72.55564972541445 3.5 L 79.55564972541445 0 L 72.55564972541445 -3.5 L 72.55564972541445 -0.5 L 64.42626236270723 -0.5 Z"/><text text-anchor="middle" pointer-events="none" font-size="8px" fill="#000000" x="52.52782486270723" y="3" transform="rotate(180 52.52782486270723 0)" font-family="sans-serif">2834</text></g><g class="relationship" transform="translate(431.0016267592676 -109.44094746115996) rotate(424.2036549597493)"><path class="outline" fill="#68BDF6" stroke="none" d="M 32.5 0.5 L 37.261858023479846 0.5 L 37.261858023479846 -0.5 L 32.5 -0.5 Z M 61.058733023479846 0.5 L 65.82059104695969 0.5 L 65.82059104695969 3.5 L 72.82059104695969 0 L 65.82059104695969 -3.5 L 65.82059104695969 -0.5 L 61.058733023479846 -0.5 Z"/><text text-anchor="middle" pointer-events="none" font-size="8px" fill="#000000" x="49.160295523479846" y="3" font-family="sans-serif">2489</text></g><g class="relationship" transform="translate(431.0016267592676 -109.44094746115996) rotate(213.10946691324443)"><path class="outline" fill="#68BDF6" stroke="none" d="M 32.5 0.5 L 50.80020540909348 0.5 L 50.80020540909348 -0.5 L 32.5 -0.5 Z M 74.59708040909348 0.5 L 92.89728581818696 0.5 L 92.89728581818696 3.5 L 99.89728581818696 0 L 92.89728581818696 -3.5 L 92.89728581818696 -0.5 L 74.59708040909348 -0.5 Z"/><text text-anchor="middle" pointer-events="none" font-size="8px" fill="#000000" x="62.69864290909348" y="3" transform="rotate(180 62.69864290909348 0)" font-family="sans-serif">2335</text></g><g class="relationship" transform="translate(320.101890355657 -181.7616896976192) rotate(318.74830746349426)"><path class="outline" fill="#68BDF6" stroke="none" d="M 32.5 0.5 L 51.812816557679525 0.5 L 51.812816557679525 -0.5 L 32.5 -0.5 Z M 75.60969155767953 0.5 L 94.92250811535905 0.5 L 94.92250811535905 3.5 L 101.92250811535905 0 L 94.92250811535905 -3.5 L 94.92250811535905 -0.5 L 75.60969155767953 -0.5 Z"/><text text-anchor="middle" pointer-events="none" font-size="8px" fill="#000000" x="63.711254057679525" y="3" font-family="sans-serif">1961</text></g><g class="relationship" transform="translate(421.16346474686327 -270.39559331014465) rotate(356.7664249961824)"><path class="outline" fill="#68BDF6" stroke="none" d="M 32.5 0.5 L 43.93491302299385 0.5 L 43.93491302299385 -0.5 L 32.5 -0.5 Z M 67.73178802299384 0.5 L 79.1667010459877 0.5 L 79.1667010459877 3.5 L 86.1667010459877 0 L 79.1667010459877 -3.5 L 79.1667010459877 -0.5 L 67.73178802299384 -0.5 Z"/><text text-anchor="middle" pointer-events="none" font-size="8px" fill="#000000" x="55.83335052299385" y="3" font-family="sans-serif">3218</text></g><g class="relationship" transform="translate(539.6412343629092 -277.089175605519) rotate(359.80234460273437)"><path class="outline" fill="#68BDF6" stroke="none" d="M 32.5 0.5 L 44.80039085985639 0.5 L 44.80039085985639 -0.5 L 32.5 -0.5 Z M 68.59726585985639 0.5 L 80.89765671971278 0.5 L 80.89765671971278 3.5 L 87.89765671971278 0 L 80.89765671971278 -3.5 L 80.89765671971278 -0.5 L 68.59726585985639 -0.5 Z"/><text text-anchor="middle" pointer-events="none" font-size="8px" fill="#000000" x="56.69882835985639" y="3" font-family="sans-serif">2166</text></g><g class="relationship" transform="translate(793.2725770569283 -278.4578985325936) rotate(539.5900164349855)"><path class="outline" fill="#68BDF6" stroke="none" d="M 32.5 0.5 L 51.22046919667444 0.5 L 51.22046919667444 -0.5 L 32.5 -0.5 Z M 75.01734419667444 0.5 L 93.73781339334889 0.5 L 93.73781339334889 3.5 L 100.73781339334889 0 L 93.73781339334889 -3.5 L 93.73781339334889 -0.5 L 75.01734419667444 -0.5 Z"/><text text-anchor="middle" pointer-events="none" font-size="8px" fill="#000000" x="63.11890669667444" y="3" transform="rotate(180 63.11890669667444 0)" font-family="sans-serif">3522</text></g><g class="relationship" transform="translate(431.0016267592676 -109.44094746115996) rotate(344.6603249064267)"><path class="outline" fill="#FF756E" stroke="none" d="M 32.5 1.5 L 97.20646333179715 1.5 L 97.20646333179715 -1.5 L 32.5 -1.5 Z M 139.36271333179715 1.5 L 204.0691766635943 1.5 L 204.0691766635943 4.5 L 213.0691766635943 0 L 204.0691766635943 -4.5 L 204.0691766635943 -1.5 L 139.36271333179715 -1.5 Z"/><text text-anchor="middle" pointer-events="none" font-size="8px" fill="#000000" x="118.28458833179715" y="3" font-family="sans-serif">PART_OF</text></g><g class="relationship" transform="translate(793.2725770569283 -278.4578985325936) rotate(501.3687921982645)"><path class="outline" fill="#FF756E" stroke="none" d="M 32.5 1.5 L 63.09661909457482 1.5 L 63.09661909457482 -1.5 L 32.5 -1.5 Z M 105.25286909457482 1.5 L 135.84948818914964 1.5 L 135.84948818914964 4.5 L 144.84948818914964 0 L 135.84948818914964 -4.5 L 135.84948818914964 -1.5 L 105.25286909457482 -1.5 Z"/><text text-anchor="middle" pointer-events="none" font-size="8px" fill="#000000" x="84.17474409457482" y="3" transform="rotate(180 84.17474409457482 0)" font-family="sans-serif">PART_OF</text></g><g class="relationship" transform="translate(431.0016267592676 -109.44094746115996) rotate(496.18853480953817)"><path class="outline" fill="#FF756E" stroke="none" d="M 32.5 1.5 L 73.04673727560802 1.5 L 73.04673727560802 -1.5 L 32.5 -1.5 Z M 115.20298727560802 1.5 L 155.74972455121605 1.5 L 155.74972455121605 4.5 L 164.74972455121605 0 L 155.74972455121605 -4.5 L 155.74972455121605 -1.5 L 115.20298727560802 -1.5 Z"/><text text-anchor="middle" pointer-events="none" font-size="8px" fill="#000000" x="94.12486227560802" y="3" transform="rotate(180 94.12486227560802 0)" font-family="sans-serif">PART_OF</text></g><g class="relationship" transform="translate(476.8343744892661 -14.615918412921651) rotate(528.6948013899222)"><path class="outline" fill="#FF756E" stroke="none" d="M 32.5 1.5 L 71.360153156232 1.5 L 71.360153156232 -1.5 L 32.5 -1.5 Z M 113.516403156232 1.5 L 152.376556312464 1.5 L 152.376556312464 4.5 L 161.376556312464 0 L 152.376556312464 -4.5 L 152.376556312464 -1.5 L 113.516403156232 -1.5 Z"/><text text-anchor="middle" pointer-events="none" font-size="8px" fill="#000000" x="92.438278156232" y="3" transform="rotate(180 92.438278156232 0)" font-family="sans-serif">PART_OF</text></g><g class="relationship" transform="translate(421.16346474686327 -270.39559331014465) rotate(473.4978131852184)"><path class="outline" fill="#FF756E" stroke="none" d="M 32.5 1.5 L 137.54593473378821 1.5 L 137.54593473378821 -1.5 L 32.5 -1.5 Z M 179.70218473378821 1.5 L 284.74811946757643 1.5 L 284.74811946757643 4.5 L 293.74811946757643 0 L 284.74811946757643 -4.5 L 284.74811946757643 -1.5 L 179.70218473378821 -1.5 Z"/><text text-anchor="middle" pointer-events="none" font-size="8px" fill="#000000" x="158.62405973378821" y="3" transform="rotate(180 158.62405973378821 0)" font-family="sans-serif">PART_OF</text></g><g class="relationship" transform="translate(320.101890355657 -181.7616896976192) rotate(457.28214925915904)"><path class="outline" fill="#FF756E" stroke="none" d="M 32.5 1.5 L 80.84106724858479 1.5 L 80.84106724858479 -1.5 L 32.5 -1.5 Z M 122.99731724858479 1.5 L 171.33838449716959 1.5 L 171.33838449716959 4.5 L 180.33838449716959 0 L 171.33838449716959 -4.5 L 171.33838449716959 -1.5 L 122.99731724858479 -1.5 Z"/><text text-anchor="middle" pointer-events="none" font-size="8px" fill="#000000" x="101.91919224858479" y="3" transform="rotate(180 101.91919224858479 0)" font-family="sans-serif">PART_OF</text></g><g class="relationship" transform="translate(660.0381746758228 -277.5045150889931) rotate(500.7106119506004)"><path class="outline" fill="#FF756E" stroke="none" d="M 32.5 1.5 L 214.59575205432873 1.5 L 214.59575205432873 -1.5 L 32.5 -1.5 Z M 256.7520020543287 1.5 L 438.84775410865745 1.5 L 438.84775410865745 4.5 L 447.84775410865745 0 L 438.84775410865745 -4.5 L 438.84775410865745 -1.5 L 256.7520020543287 -1.5 Z"/><text text-anchor="middle" pointer-events="none" font-size="8px" fill="#000000" x="235.67387705432873" y="3" transform="rotate(180 235.67387705432873 0)" font-family="sans-serif">PART_OF</text></g><g class="relationship" transform="translate(539.6412343629092 -277.089175605519) rotate(489.3951790105335)"><path class="outline" fill="#FF756E" stroke="none" d="M 32.5 1.5 L 171.63373167634253 1.5 L 171.63373167634253 -1.5 L 32.5 -1.5 Z M 213.78998167634253 1.5 L 352.92371335268507 1.5 L 352.92371335268507 4.5 L 361.92371335268507 0 L 352.92371335268507 -4.5 L 352.92371335268507 -1.5 L 213.78998167634253 -1.5 Z"/><text text-anchor="middle" pointer-events="none" font-size="8px" fill="#000000" x="192.71185667634253" y="3" transform="rotate(180 192.71185667634253 0)" font-family="sans-serif">PART_OF</text></g><g class="relationship" transform="translate(-91.66576375017715 64.29343965750283) rotate(353.731269097485)"><path class="outline" fill="#FF756E" stroke="none" d="M 32.5 1.5 L 172.20197489004883 1.5 L 172.20197489004883 -1.5 L 32.5 -1.5 Z M 214.35822489004883 1.5 L 354.06019978009766 1.5 L 354.06019978009766 4.5 L 363.06019978009766 0 L 354.06019978009766 -4.5 L 354.06019978009766 -1.5 L 214.35822489004883 -1.5 Z"/><text text-anchor="middle" pointer-events="none" font-size="8px" fill="#000000" x="193.28009989004883" y="3" font-family="sans-serif">PART_OF</text></g><g class="relationship" transform="translate(-23.268526243431836 -45.036937746537234) rotate(371.9143109301016)"><path class="outline" fill="#FF756E" stroke="none" d="M 32.5 1.5 L 140.33663330286456 1.5 L 140.33663330286456 -1.5 L 32.5 -1.5 Z M 182.49288330286456 1.5 L 290.3295166057291 1.5 L 290.3295166057291 4.5 L 299.3295166057291 0 L 290.3295166057291 -4.5 L 290.3295166057291 -1.5 L 182.49288330286456 -1.5 Z"/><text text-anchor="middle" pointer-events="none" font-size="8px" fill="#000000" x="161.41475830286456" y="3" font-family="sans-serif">PART_OF</text></g><g class="relationship" transform="translate(81.2544080218588 -113.35865723680429) rotate(392.44212757424793)"><path class="outline" fill="#FF756E" stroke="none" d="M 32.5 1.5 L 104.25979630951949 1.5 L 104.25979630951949 -1.5 L 32.5 -1.5 Z M 146.4160463095195 1.5 L 218.17584261903897 1.5 L 218.17584261903897 4.5 L 227.17584261903897 0 L 218.17584261903897 -4.5 L 218.17584261903897 -1.5 L 146.4160463095195 -1.5 Z"/><text text-anchor="middle" pointer-events="none" font-size="8px" fill="#000000" x="125.33792130951949" y="3" font-family="sans-serif">PART_OF</text></g><g class="relationship" transform="translate(152.6741731261278 -37.9967975317858) rotate(382.96446133308666)"><path class="outline" fill="#FF756E" stroke="none" d="M 32.5 1.5 L 54.95731515046084 1.5 L 54.95731515046084 -1.5 L 32.5 -1.5 Z M 97.11356515046084 1.5 L 119.57088030092169 1.5 L 119.57088030092169 4.5 L 128.5708803009217 0 L 119.57088030092169 -4.5 L 119.57088030092169 -1.5 L 97.11356515046084 -1.5 Z"/><text text-anchor="middle" pointer-events="none" font-size="8px" fill="#000000" x="76.03544015046084" y="3" font-family="sans-serif">PART_OF</text></g><g class="relationship" transform="translate(26.61603818419347 175.67963975894293) rotate(330.10579632111944)"><path class="outline" fill="#FF756E" stroke="none" d="M 32.5 1.5 L 132.42468042214085 1.5 L 132.42468042214085 -1.5 L 32.5 -1.5 Z M 174.58093042214085 1.5 L 274.5056108442817 1.5 L 274.5056108442817 4.5 L 283.5056108442817 0 L 274.5056108442817 -4.5 L 274.5056108442817 -1.5 L 174.58093042214085 -1.5 Z"/><text text-anchor="middle" pointer-events="none" font-size="8px" fill="#000000" x="153.50280542214085" y="3" font-family="sans-serif">PART_OF</text></g><g class="relationship" transform="translate(456.6710162338856 95.61070096393284) rotate(204.380428168295)"><path class="outline" fill="#FF756E" stroke="none" d="M 32.5 1.5 L 67.42994342513009 1.5 L 67.42994342513009 -1.5 L 32.5 -1.5 Z M 109.58619342513009 1.5 L 144.51613685026018 1.5 L 144.51613685026018 4.5 L 153.51613685026018 0 L 144.51613685026018 -4.5 L 144.51613685026018 -1.5 L 109.58619342513009 -1.5 Z"/><text text-anchor="middle" pointer-events="none" font-size="8px" fill="#000000" x="88.50806842513009" y="3" transform="rotate(180 88.50806842513009 0)" font-family="sans-serif">PART_OF</text></g><g class="relationship" transform="translate(278.20429995990014 202.85619058024952) rotate(275.0125631640163)"><path class="outline" fill="#FF756E" stroke="none" d="M 32.5 1.5 L 68.98707138708674 1.5 L 68.98707138708674 -1.5 L 32.5 -1.5 Z M 111.14332138708674 1.5 L 147.6303927741735 1.5 L 147.6303927741735 4.5 L 156.6303927741735 0 L 147.6303927741735 -4.5 L 147.6303927741735 -1.5 L 111.14332138708674 -1.5 Z"/><text text-anchor="middle" pointer-events="none" font-size="8px" fill="#000000" x="90.06519638708674" y="3" font-family="sans-serif">PART_OF</text></g><g class="relationship" transform="translate(135.0669838728036 73.39775752231546) rotate(342.0610408814523)"><path class="outline" fill="#FF756E" stroke="none" d="M 32.5 1.5 L 61.737986332178124 1.5 L 61.737986332178124 -1.5 L 32.5 -1.5 Z M 103.89423633217812 1.5 L 133.13222266435625 1.5 L 133.13222266435625 4.5 L 142.13222266435625 0 L 133.13222266435625 -4.5 L 133.13222266435625 -1.5 L 103.89423633217812 -1.5 Z"/><text text-anchor="middle" pointer-events="none" font-size="8px" fill="#000000" x="82.81611133217812" y="3" font-family="sans-serif">PART_OF</text></g><g class="relationship" transform="translate(172.81667367857858 176.35163380110856) rotate(308.13855599104016)"><path class="outline" fill="#FF756E" stroke="none" d="M 32.5 1.5 L 76.34565077050785 1.5 L 76.34565077050785 -1.5 L 32.5 -1.5 Z M 118.50190077050785 1.5 L 162.3475515410157 1.5 L 162.3475515410157 4.5 L 171.3475515410157 0 L 162.3475515410157 -4.5 L 162.3475515410157 -1.5 L 118.50190077050785 -1.5 Z"/><text text-anchor="middle" pointer-events="none" font-size="8px" fill="#000000" x="97.42377577050785" y="3" font-family="sans-serif">PART_OF</text></g><g class="relationship" transform="translate(387.39437812509766 176.01481669552908) rotate(238.8007084822741)"><path class="outline" fill="#FF756E" stroke="none" d="M 32.5 1.5 L 68.24650065174214 1.5 L 68.24650065174214 -1.5 L 32.5 -1.5 Z M 110.40275065174214 1.5 L 146.14925130348428 1.5 L 146.14925130348428 4.5 L 155.14925130348428 0 L 146.14925130348428 -4.5 L 146.14925130348428 -1.5 L 110.40275065174214 -1.5 Z"/><text text-anchor="middle" pointer-events="none" font-size="8px" fill="#000000" x="89.32462565174214" y="3" transform="rotate(180 89.32462565174214 0)" font-family="sans-serif">PART_OF</text></g><g class="relationship" transform="translate(-135.32202054489676 293.6268876024486) rotate(279.9022564370826)"><path class="outline" fill="#FF756E" stroke="none" d="M 32.5 1.5 L 37.20304821957421 1.5 L 37.20304821957421 -1.5 L 32.5 -1.5 Z M 79.35929821957421 1.5 L 84.06234643914841 1.5 L 84.06234643914841 4.5 L 93.06234643914841 0 L 84.06234643914841 -4.5 L 84.06234643914841 -1.5 L 79.35929821957421 -1.5 Z"/><text text-anchor="middle" pointer-events="none" font-size="8px" fill="#000000" x="58.28117321957421" y="3" font-family="sans-serif">PART_OF</text></g><g class="relationship" transform="translate(26.61603818419347 175.67963975894293) rotate(539.3350908265905)"><path class="outline" fill="#FF756E" stroke="none" d="M 32.5 1.5 L 48.99420657086871 1.5 L 48.99420657086871 -1.5 L 32.5 -1.5 Z M 91.15045657086871 1.5 L 107.64466314173742 1.5 L 107.64466314173742 4.5 L 116.64466314173742 0 L 107.64466314173742 -4.5 L 107.64466314173742 -1.5 L 91.15045657086871 -1.5 Z"/><text text-anchor="middle" pointer-events="none" font-size="8px" fill="#000000" x="70.07233157086871" y="3" transform="rotate(180 70.07233157086871 0)" font-family="sans-serif">PART_OF</text></g><g class="relationship" transform="translate(15.851948048213309 292.1043747006275) rotate(221.2525212993362)"><path class="outline" fill="#FF756E" stroke="none" d="M 32.5 1.5 L 65.20909010145522 1.5 L 65.20909010145522 -1.5 L 32.5 -1.5 Z M 107.36534010145522 1.5 L 140.07443020291043 1.5 L 140.07443020291043 4.5 L 149.07443020291043 0 L 140.07443020291043 -4.5 L 140.07443020291043 -1.5 L 107.36534010145522 -1.5 Z"/><text text-anchor="middle" pointer-events="none" font-size="8px" fill="#000000" x="86.28721510145522" y="3" transform="rotate(180 86.28721510145522 0)" font-family="sans-serif">PART_OF</text></g></g><g class="layer nodes"><g class="node" transform="translate(-135.32202054489676,293.6268876024486)"><circle class="outline" cx="0" cy="0" r="32.5" fill="#68BDF6" stroke="#5CA8DB" stroke-width="2px"/><text text-anchor="middle" pointer-events="none" font-family="sans-serif" dy="2.03125" font-size="32.5" fill="#FFFFFF"/><text text-anchor="middle" pointer-events="none" y="5" font-size="10px" fill="#FFFFFF" font-family="sans-serif"> Quaregnon</text></g><g class="node" transform="translate(15.851948048213309,292.1043747006275)"><circle class="outline" cx="0" cy="0" r="32.5" fill="#68BDF6" stroke="#5CA8DB" stroke-width="2px"/><text text-anchor="middle" pointer-events="none" font-family="sans-serif" dy="2.03125" font-size="32.5" fill="#FFFFFF"/><text text-anchor="middle" pointer-events="none" y="5" font-size="10px" fill="#FFFFFF" font-family="sans-serif"> Jemappes</text></g><g class="node" transform="translate(26.61603818419347,175.67963975894293)"><circle class="outline" cx="0" cy="0" r="32.5" fill="#68BDF6" stroke="#5CA8DB" stroke-width="2px"/><text text-anchor="middle" pointer-events="none" font-family="sans-serif" dy="2.03125" font-size="32.5" fill="#FFFFFF"/><text text-anchor="middle" pointer-events="none" y="5" font-size="10px" fill="#FFFFFF" font-family="sans-serif"> Mons</text></g><g class="node" transform="translate(-91.66576375017715,64.29343965750283)"><circle class="outline" cx="0" cy="0" r="32.5" fill="#68BDF6" stroke="#5CA8DB" stroke-width="2px"/><text text-anchor="middle" pointer-events="none" font-family="sans-serif" dy="2.03125" font-size="32.5" fill="#FFFFFF"/><text text-anchor="middle" pointer-events="none" y="5" font-size="10px" fill="#FFFFFF" font-family="sans-serif"> Ghlin</text></g><g class="node" transform="translate(-23.268526243431836,-45.036937746537234)"><circle class="outline" cx="0" cy="0" r="32.5" fill="#68BDF6" stroke="#5CA8DB" stroke-width="2px"/><text text-anchor="middle" pointer-events="none" font-family="sans-serif" dy="2.03125" font-size="32.5" fill="#FFFFFF"/><text text-anchor="middle" pointer-events="none" y="5" font-size="10px" fill="#FFFFFF" font-family="sans-serif"> Erbisoeul</text></g><g class="node" transform="translate(81.2544080218588,-113.35865723680429)"><circle class="outline" cx="0" cy="0" r="32.5" fill="#68BDF6" stroke="#5CA8DB" stroke-width="2px"/><text text-anchor="middle" pointer-events="none" font-family="sans-serif" dy="2.03125" font-size="32.5" fill="#FFFFFF"/><text text-anchor="middle" pointer-events="none" y="5" font-size="10px" fill="#FFFFFF" font-family="sans-serif"> Jurbeke</text></g><g class="node" transform="translate(152.6741731261278,-37.9967975317858)"><circle class="outline" cx="0" cy="0" r="32.5" fill="#68BDF6" stroke="#5CA8DB" stroke-width="2px"/><text text-anchor="middle" pointer-events="none" font-family="sans-serif" dy="2.03125" font-size="32.5" fill="#FFFFFF"/><text text-anchor="middle" pointer-events="none" y="5" font-size="10px" fill="#FFFFFF" font-family="sans-serif"> Masnuy-Sai…</text></g><g class="node" transform="translate(135.0669838728036,73.39775752231546)"><circle class="outline" cx="0" cy="0" r="32.5" fill="#68BDF6" stroke="#5CA8DB" stroke-width="2px"/><text text-anchor="middle" pointer-events="none" font-family="sans-serif" dy="2.03125" font-size="32.5" fill="#FFFFFF"/><text text-anchor="middle" pointer-events="none" y="5" font-size="10px" fill="#FFFFFF" font-family="sans-serif"> Neufvilles</text></g><g class="node" transform="translate(172.81667367857858,176.35163380110856)"><circle class="outline" cx="0" cy="0" r="32.5" fill="#68BDF6" stroke="#5CA8DB" stroke-width="2px"/><text text-anchor="middle" pointer-events="none" font-family="sans-serif" dy="2.03125" font-size="32.5" fill="#FFFFFF"/><text text-anchor="middle" pointer-events="none" y="5" font-size="10px" fill="#FFFFFF" font-family="sans-serif"> Soignies</text></g><g class="node" transform="translate(278.20429995990014,202.85619058024952)"><circle class="outline" cx="0" cy="0" r="32.5" fill="#68BDF6" stroke="#5CA8DB" stroke-width="2px"/><text text-anchor="middle" pointer-events="none" font-family="sans-serif" dy="2.03125" font-size="32.5" fill="#FFFFFF"/><text text-anchor="middle" pointer-events="none" y="5" font-size="10px" fill="#FFFFFF" font-family="sans-serif"> Braine-le-C…</text></g><g class="node" transform="translate(387.39437812509766,176.01481669552908)"><circle class="outline" cx="0" cy="0" r="32.5" fill="#68BDF6" stroke="#5CA8DB" stroke-width="2px"/><text text-anchor="middle" pointer-events="none" font-family="sans-serif" dy="2.03125" font-size="32.5" fill="#FFFFFF"/><text text-anchor="middle" pointer-events="none" y="5" font-size="10px" fill="#FFFFFF" font-family="sans-serif"> Hennuyères</text></g><g class="node" transform="translate(456.6710162338856,95.61070096393284)"><circle class="outline" cx="0" cy="0" r="32.5" fill="#68BDF6" stroke="#5CA8DB" stroke-width="2px"/><text text-anchor="middle" pointer-events="none" font-family="sans-serif" dy="2.03125" font-size="32.5" fill="#FFFFFF"/><text text-anchor="middle" pointer-events="none" y="5" font-size="10px" fill="#FFFFFF" font-family="sans-serif"> Tubize</text></g><g class="node" transform="translate(476.8343744892661,-14.615918412921651)"><circle class="outline" cx="0" cy="0" r="32.5" fill="#68BDF6" stroke="#5CA8DB" stroke-width="2px"/><text text-anchor="middle" pointer-events="none" font-family="sans-serif" dy="2.03125" font-size="32.5" fill="#FFFFFF"/><text text-anchor="middle" pointer-events="none" y="5" font-size="10px" fill="#FFFFFF" font-family="sans-serif"> Lembeek</text></g><g class="node" transform="translate(431.0016267592676,-109.44094746115996)"><circle class="outline" cx="0" cy="0" r="32.5" fill="#68BDF6" stroke="#5CA8DB" stroke-width="2px"/><text text-anchor="middle" pointer-events="none" font-family="sans-serif" dy="2.03125" font-size="32.5" fill="#FFFFFF"/><text text-anchor="middle" pointer-events="none" y="5" font-size="10px" fill="#FFFFFF" font-family="sans-serif"> Halle</text></g><g class="node" transform="translate(320.101890355657,-181.7616896976192)"><circle class="outline" cx="0" cy="0" r="32.5" fill="#68BDF6" stroke="#5CA8DB" stroke-width="2px"/><text text-anchor="middle" pointer-events="none" font-family="sans-serif" dy="2.03125" font-size="32.5" fill="#FFFFFF"/><text text-anchor="middle" pointer-events="none" y="5" font-size="10px" fill="#FFFFFF" font-family="sans-serif"> Buizingen</text></g><g class="node" transform="translate(421.16346474686327,-270.39559331014465)"><circle class="outline" cx="0" cy="0" r="32.5" fill="#68BDF6" stroke="#5CA8DB" stroke-width="2px"/><text text-anchor="middle" pointer-events="none" font-family="sans-serif" dy="2.03125" font-size="32.5" fill="#FFFFFF"/><text text-anchor="middle" pointer-events="none" y="5" font-size="10px" fill="#FFFFFF" font-family="sans-serif"> Lot</text></g><g class="node" transform="translate(539.6412343629092,-277.089175605519)"><circle class="outline" cx="0" cy="0" r="32.5" fill="#68BDF6" stroke="#5CA8DB" stroke-width="2px"/><text text-anchor="middle" pointer-events="none" font-family="sans-serif" dy="2.03125" font-size="32.5" fill="#FFFFFF"/><text text-anchor="middle" pointer-events="none" y="5" font-size="10px" fill="#FFFFFF" font-family="sans-serif"> Ruisbroek</text></g><g class="node" transform="translate(660.0381746758228,-277.5045150889931)"><circle class="outline" cx="0" cy="0" r="32.5" fill="#68BDF6" stroke="#5CA8DB" stroke-width="2px"/><text text-anchor="middle" pointer-events="none" font-family="sans-serif" dy="2.03125" font-size="32.5" fill="#FFFFFF"/><text text-anchor="middle" pointer-events="none" y="5" font-size="10px" fill="#FFFFFF" font-family="sans-serif"> Vorst-Zuid/…</text></g><g class="node" transform="translate(793.2725770569283,-278.4578985325936)"><circle class="outline" cx="0" cy="0" r="32.5" fill="#68BDF6" stroke="#5CA8DB" stroke-width="2px"/><text text-anchor="middle" pointer-events="none" font-family="sans-serif" dy="2.03125" font-size="32.5" fill="#FFFFFF"/><text text-anchor="middle" pointer-events="none" y="5" font-size="10px" fill="#FFFFFF" font-family="sans-serif"> Brussels-So…</text></g><g class="node" transform="translate(660.5894617369541,-172.41998292170223)"><circle class="outline" cx="0" cy="0" r="25" fill="#FF756E" stroke="#E06760" stroke-width="2px"/><text text-anchor="middle" pointer-events="none" font-family="sans-serif" dy="1.5625" font-size="25" fill="#FFFFFF"/><text text-anchor="middle" pointer-events="none" y="5" font-size="10px" fill="#FFFFFF" font-family="sans-serif"> HSL 1</text></g><g class="node" transform="translate(294.0741056551641,21.920431686394878)"><circle class="outline" cx="0" cy="0" r="25" fill="#FF756E" stroke="#E06760" stroke-width="2px"/><text text-anchor="middle" pointer-events="none" font-family="sans-serif" dy="1.5625" font-size="25" fill="#FFFFFF"/><text text-anchor="middle" pointer-events="none" font-family="sans-serif" dy="1.5625" font-size="25" fill="#FFFFFF"/><text text-anchor="middle" pointer-events="none" y="0" font-size="10px" fill="#FFFFFF" font-family="sans-serif"> Line 96</text><text text-anchor="middle" pointer-events="none" y="10" font-size="10px" fill="#FFFFFF" font-family="sans-serif"> (Infrabel)</text></g><g class="node" transform="translate(-115.0190872339804,177.3233685426627)"><circle class="outline" cx="0" cy="0" r="25" fill="#FF756E" stroke="#E06760" stroke-width="2px"/><text text-anchor="middle" pointer-events="none" font-family="sans-serif" dy="1.5625" font-size="25" fill="#FFFFFF"/><text text-anchor="middle" pointer-events="none" font-family="sans-serif" dy="1.5625" font-size="25" fill="#FFFFFF"/><text text-anchor="middle" pointer-events="none" y="0" font-size="10px" fill="#FFFFFF" font-family="sans-serif"> Line 97</text><text text-anchor="middle" pointer-events="none" y="10" font-size="10px" fill="#FFFFFF" font-family="sans-serif"> (Infrabel)</text></g></g></svg>