<?xml version="1.0" encoding="UTF-8" standalone="no"?>
<!DOCTYPE svg PUBLIC "-//W3C//DTD SVG 1.1//EN"
 "http://www.w3.org/Graphics/SVG/1.1/DTD/svg11.dtd">
<!-- Generated by graphviz version 2.40.1 (20161225.0304)
 -->
<!-- Title: G Pages: 1 -->
<svg width="656pt" height="188pt"
 viewBox="0.00 0.00 655.60 188.00" xmlns="http://www.w3.org/2000/svg" xmlns:xlink="http://www.w3.org/1999/xlink">
<g id="graph0" class="graph" transform="scale(1 1) rotate(0) translate(4 184)">
<title>G</title>
<polygon fill="#ffffff" stroke="transparent" points="-4,4 -4,-184 651.5963,-184 651.5963,4 -4,4"/>
<!-- PHPTree -->
<g id="node1" class="node">
<title>PHPTree</title>
<ellipse fill="none" stroke="#000000" cx="352" cy="-162" rx="42.7926" ry="18"/>
<text text-anchor="middle" x="352" y="-158.3" font-family="Times,serif" font-size="14.00" fill="#000000">PHPTree</text>
</g>
<!-- is -->
<g id="node2" class="node">
<title>is</title>
<ellipse fill="none" stroke="#000000" cx="139" cy="-90" rx="27" ry="18"/>
<text text-anchor="middle" x="139" y="-86.3" font-family="Times,serif" font-size="14.00" fill="#000000">is</text>
</g>
<!-- PHPTree&#45;&gt;is -->
<g id="edge1" class="edge">
<title>PHPTree&#45;&gt;is</title>
<path fill="none" stroke="#000000" d="M318.2495,-150.5914C278.4538,-137.1393 212.6982,-114.9121 172.8564,-101.4444"/>
<polygon fill="#000000" stroke="#000000" points="173.9113,-98.1065 163.3171,-98.2199 171.6697,-104.7379 173.9113,-98.1065"/>
</g>
<!-- a -->
<g id="node3" class="node">
<title>a</title>
<ellipse fill="none" stroke="#000000" cx="352" cy="-90" rx="27" ry="18"/>
<text text-anchor="middle" x="352" y="-86.3" font-family="Times,serif" font-size="14.00" fill="#000000">a</text>
</g>
<!-- PHPTree&#45;&gt;a -->
<g id="edge2" class="edge">
<title>PHPTree&#45;&gt;a</title>
<path fill="none" stroke="#000000" d="M352,-143.8314C352,-136.131 352,-126.9743 352,-118.4166"/>
<polygon fill="#000000" stroke="#000000" points="355.5001,-118.4132 352,-108.4133 348.5001,-118.4133 355.5001,-118.4132"/>
</g>
<!-- fast -->
<g id="node4" class="node">
<title>fast</title>
<ellipse fill="none" stroke="#000000" cx="519" cy="-90" rx="27" ry="18"/>
<text text-anchor="middle" x="519" y="-86.3" font-family="Times,serif" font-size="14.00" fill="#000000">fast</text>
</g>
<!-- PHPTree&#45;&gt;fast -->
<g id="edge3" class="edge">
<title>PHPTree&#45;&gt;fast</title>
<path fill="none" stroke="#000000" d="M382.2424,-148.9613C411.8428,-136.1995 456.7679,-116.8306 486.9678,-103.8103"/>
<polygon fill="#000000" stroke="#000000" points="488.4202,-106.9956 496.2174,-99.8224 485.6488,-100.5676 488.4202,-106.9956"/>
</g>
<!-- and -->
<g id="node5" class="node">
<title>and</title>
<ellipse fill="none" stroke="#000000" cx="27" cy="-18" rx="27" ry="18"/>
<text text-anchor="middle" x="27" y="-14.3" font-family="Times,serif" font-size="14.00" fill="#000000">and</text>
</g>
<!-- is&#45;&gt;and -->
<g id="edge4" class="edge">
<title>is&#45;&gt;and</title>
<path fill="none" stroke="#000000" d="M119.4911,-77.4586C101.6933,-66.0171 75.1855,-48.9764 55.1047,-36.0673"/>
<polygon fill="#000000" stroke="#000000" points="56.9656,-33.1028 46.6611,-30.6393 53.1803,-38.9911 56.9656,-33.1028"/>
</g>
<!-- fun -->
<g id="node6" class="node">
<title>fun</title>
<ellipse fill="none" stroke="#000000" cx="99" cy="-18" rx="27" ry="18"/>
<text text-anchor="middle" x="99" y="-14.3" font-family="Times,serif" font-size="14.00" fill="#000000">fun</text>
</g>
<!-- is&#45;&gt;fun -->
<g id="edge5" class="edge">
<title>is&#45;&gt;fun</title>
<path fill="none" stroke="#000000" d="M129.5206,-72.937C124.6885,-64.2393 118.7111,-53.4799 113.3304,-43.7948"/>
<polygon fill="#000000" stroke="#000000" points="116.3274,-41.9823 108.4114,-34.9405 110.2083,-45.3819 116.3274,-41.9823"/>
</g>
<!-- library -->
<g id="node7" class="node">
<title>library</title>
<ellipse fill="none" stroke="#000000" cx="178" cy="-18" rx="34.394" ry="18"/>
<text text-anchor="middle" x="178" y="-14.3" font-family="Times,serif" font-size="14.00" fill="#000000">library</text>
</g>
<!-- is&#45;&gt;library -->
<g id="edge6" class="edge">
<title>is&#45;&gt;library</title>
<path fill="none" stroke="#000000" d="M148.2425,-72.937C152.8376,-64.4537 158.495,-54.0092 163.6388,-44.513"/>
<polygon fill="#000000" stroke="#000000" points="166.8676,-45.9006 168.553,-35.4407 160.7126,-42.5666 166.8676,-45.9006"/>
</g>
<!-- to -->
<g id="node8" class="node">
<title>to</title>
<ellipse fill="none" stroke="#000000" cx="257" cy="-18" rx="27" ry="18"/>
<text text-anchor="middle" x="257" y="-14.3" font-family="Times,serif" font-size="14.00" fill="#000000">to</text>
</g>
<!-- a&#45;&gt;to -->
<g id="edge7" class="edge">
<title>a&#45;&gt;to</title>
<path fill="none" stroke="#000000" d="M334.1312,-76.4574C319.7594,-65.565 299.3619,-50.1059 283.1524,-37.8207"/>
<polygon fill="#000000" stroke="#000000" points="285.1954,-34.9776 275.1116,-31.7267 280.9673,-40.5564 285.1954,-34.9776"/>
</g>
<!-- manipulate -->
<g id="node9" class="node">
<title>manipulate</title>
<ellipse fill="none" stroke="#000000" cx="352" cy="-18" rx="50.0912" ry="18"/>
<text text-anchor="middle" x="352" y="-14.3" font-family="Times,serif" font-size="14.00" fill="#000000">manipulate</text>
</g>
<!-- a&#45;&gt;manipulate -->
<g id="edge8" class="edge">
<title>a&#45;&gt;manipulate</title>
<path fill="none" stroke="#000000" d="M352,-71.8314C352,-64.131 352,-54.9743 352,-46.4166"/>
<polygon fill="#000000" stroke="#000000" points="355.5001,-46.4132 352,-36.4133 348.5001,-46.4133 355.5001,-46.4132"/>
</g>
<!-- trees -->
<g id="node10" class="node">
<title>trees</title>
<ellipse fill="none" stroke="#000000" cx="447" cy="-18" rx="27.0966" ry="18"/>
<text text-anchor="middle" x="447" y="-14.3" font-family="Times,serif" font-size="14.00" fill="#000000">trees</text>
</g>
<!-- a&#45;&gt;trees -->
<g id="edge9" class="edge">
<title>a&#45;&gt;trees</title>
<path fill="none" stroke="#000000" d="M369.8688,-76.4574C384.2406,-65.565 404.6381,-50.1059 420.8476,-37.8207"/>
<polygon fill="#000000" stroke="#000000" points="423.0327,-40.5564 428.8884,-31.7267 418.8046,-34.9776 423.0327,-40.5564"/>
</g>
<!-- data -->
<g id="node11" class="node">
<title>data</title>
<ellipse fill="none" stroke="#000000" cx="519" cy="-18" rx="27" ry="18"/>
<text text-anchor="middle" x="519" y="-14.3" font-family="Times,serif" font-size="14.00" fill="#000000">data</text>
</g>
<!-- fast&#45;&gt;data -->
<g id="edge10" class="edge">
<title>fast&#45;&gt;data</title>
<path fill="none" stroke="#000000" d="M519,-71.8314C519,-64.131 519,-54.9743 519,-46.4166"/>
<polygon fill="#000000" stroke="#000000" points="522.5001,-46.4132 519,-36.4133 515.5001,-46.4133 522.5001,-46.4132"/>
</g>
<!-- structure -->
<g id="node12" class="node">
<title>structure</title>
<ellipse fill="none" stroke="#000000" cx="606" cy="-18" rx="41.6928" ry="18"/>
<text text-anchor="middle" x="606" y="-14.3" font-family="Times,serif" font-size="14.00" fill="#000000">structure</text>
</g>
<!-- fast&#45;&gt;structure -->
<g id="edge11" class="edge">
<title>fast&#45;&gt;structure</title>
<path fill="none" stroke="#000000" d="M536.1884,-75.7751C548.276,-65.7716 564.7054,-52.1748 578.5894,-40.6846"/>
<polygon fill="#000000" stroke="#000000" points="580.9454,-43.278 586.4179,-34.2059 576.4824,-37.8852 580.9454,-43.278"/>
</g>
</g>
</svg>
