<?xml version="1.0" encoding="UTF-8" standalone="no"?>
<!DOCTYPE svg PUBLIC "-//W3C//DTD SVG 1.1//EN" "http://www.w3.org/Graphics/SVG/1.1/DTD/svg11.dtd">
<!-- Generated by graphviz version 2.40.1 (20161225.0304)
 -->
<!-- Title: G Pages: 1 -->
<svg width="1358pt" height="260pt" viewBox="0.00 0.00 1358.00 260.00" xmlns="http://www.w3.org/2000/svg" xmlns:xlink="http://www.w3.org/1999/xlink">
<g id="graph0" class="graph" transform="scale(1 1) rotate(0) translate(4 256)">
<title>G</title>
<polygon fill="#ffffff" stroke="transparent" points="-4,4 -4,-256 1354,-256 1354,4 -4,4"/>
<!-- root -->
<g id="node1" class="node">
<title>root</title>
<ellipse fill="none" stroke="#000000" cx="783" cy="-234" rx="27" ry="18"/>
<text text-anchor="middle" x="783" y="-230.3" font-family="Times,serif" font-size="14.00" fill="#000000">root</text>
</g>
<!-- A -->
<g id="node2" class="node">
<title>A</title>
<ellipse fill="none" stroke="#000000" cx="387" cy="-162" rx="27" ry="18"/>
<text text-anchor="middle" x="387" y="-158.3" font-family="Times,serif" font-size="14.00" fill="#000000">A</text>
</g>
<!-- root&#45;&gt;A -->
<g id="edge1" class="edge">
<title>root-&gt;A</title>
<path fill="none" stroke="#000000" d="M756.7107,-229.2201C687.8543,-216.7008 502.1298,-182.9327 423.2397,-168.589"/>
<polygon fill="#000000" stroke="#000000" points="423.7449,-165.1236 413.28,-166.7782 422.4926,-172.0107 423.7449,-165.1236"/>
</g>
<!-- B -->
<g id="node3" class="node">
<title>B</title>
<ellipse fill="none" stroke="#000000" cx="675" cy="-162" rx="27" ry="18"/>
<text text-anchor="middle" x="675" y="-158.3" font-family="Times,serif" font-size="14.00" fill="#000000">B</text>
</g>
<!-- root&#45;&gt;B -->
<g id="edge2" class="edge">
<title>root-&gt;B</title>
<path fill="none" stroke="#000000" d="M763.6918,-221.1278C746.6445,-209.763 721.5981,-193.0654 702.4656,-180.3104"/>
<polygon fill="#000000" stroke="#000000" points="704.4031,-177.3956 694.1411,-174.7607 700.5201,-183.2199 704.4031,-177.3956"/>
</g>
<!-- C -->
<g id="node4" class="node">
<title>C</title>
<ellipse fill="none" stroke="#000000" cx="891" cy="-162" rx="27" ry="18"/>
<text text-anchor="middle" x="891" y="-158.3" font-family="Times,serif" font-size="14.00" fill="#000000">C</text>
</g>
<!-- root&#45;&gt;C -->
<g id="edge3" class="edge">
<title>root-&gt;C</title>
<path fill="none" stroke="#000000" d="M802.3082,-221.1278C819.3555,-209.763 844.4019,-193.0654 863.5344,-180.3104"/>
<polygon fill="#000000" stroke="#000000" points="865.4799,-183.2199 871.8589,-174.7607 861.5969,-177.3956 865.4799,-183.2199"/>
</g>
<!-- D -->
<g id="node5" class="node">
<title>D</title>
<ellipse fill="none" stroke="#000000" cx="1179" cy="-162" rx="27" ry="18"/>
<text text-anchor="middle" x="1179" y="-158.3" font-family="Times,serif" font-size="14.00" fill="#000000">D</text>
</g>
<!-- root&#45;&gt;D -->
<g id="edge4" class="edge">
<title>root-&gt;D</title>
<path fill="none" stroke="#000000" d="M809.2893,-229.2201C878.1457,-216.7008 1063.8702,-182.9327 1142.7603,-168.589"/>
<polygon fill="#000000" stroke="#000000" points="1143.5074,-172.0107 1152.72,-166.7782 1142.2551,-165.1236 1143.5074,-172.0107"/>
</g>
<!-- E -->
<g id="node6" class="node">
<title>E</title>
<ellipse fill="none" stroke="#000000" cx="171" cy="-90" rx="27" ry="18"/>
<text text-anchor="middle" x="171" y="-86.3" font-family="Times,serif" font-size="14.00" fill="#000000">E</text>
</g>
<!-- A&#45;&gt;E -->
<g id="edge5" class="edge">
<title>A-&gt;E</title>
<path fill="none" stroke="#000000" d="M362.6419,-153.8806C324.053,-141.0177 248.7561,-115.9187 204.9104,-101.3035"/>
<polygon fill="#000000" stroke="#000000" points="205.8627,-97.9316 195.2691,-98.0897 203.6491,-104.5724 205.8627,-97.9316"/>
</g>
<!-- F -->
<g id="node7" class="node">
<title>F</title>
<ellipse fill="none" stroke="#000000" cx="315" cy="-90" rx="27" ry="18"/>
<text text-anchor="middle" x="315" y="-86.3" font-family="Times,serif" font-size="14.00" fill="#000000">F</text>
</g>
<!-- A&#45;&gt;F -->
<g id="edge6" class="edge">
<title>A-&gt;F</title>
<path fill="none" stroke="#000000" d="M371.7307,-146.7307C361.803,-136.803 348.6847,-123.6847 337.5637,-112.5637"/>
<polygon fill="#000000" stroke="#000000" points="339.7933,-109.8436 330.2473,-105.2473 334.8436,-114.7933 339.7933,-109.8436"/>
</g>
<!-- G -->
<g id="node8" class="node">
<title>G</title>
<ellipse fill="none" stroke="#000000" cx="387" cy="-90" rx="27" ry="18"/>
<text text-anchor="middle" x="387" y="-86.3" font-family="Times,serif" font-size="14.00" fill="#000000">G</text>
</g>
<!-- A&#45;&gt;G -->
<g id="edge7" class="edge">
<title>A-&gt;G</title>
<path fill="none" stroke="#000000" d="M387,-143.8314C387,-136.131 387,-126.9743 387,-118.4166"/>
<polygon fill="#000000" stroke="#000000" points="390.5001,-118.4132 387,-108.4133 383.5001,-118.4133 390.5001,-118.4132"/>
</g>
<!-- H -->
<g id="node9" class="node">
<title>H</title>
<ellipse fill="none" stroke="#000000" cx="459" cy="-90" rx="27" ry="18"/>
<text text-anchor="middle" x="459" y="-86.3" font-family="Times,serif" font-size="14.00" fill="#000000">H</text>
</g>
<!-- A&#45;&gt;H -->
<g id="edge8" class="edge">
<title>A-&gt;H</title>
<path fill="none" stroke="#000000" d="M402.2693,-146.7307C412.197,-136.803 425.3153,-123.6847 436.4363,-112.5637"/>
<polygon fill="#000000" stroke="#000000" points="439.1564,-114.7933 443.7527,-105.2473 434.2067,-109.8436 439.1564,-114.7933"/>
</g>
<!-- I -->
<g id="node10" class="node">
<title>I</title>
<ellipse fill="none" stroke="#000000" cx="531" cy="-90" rx="27" ry="18"/>
<text text-anchor="middle" x="531" y="-86.3" font-family="Times,serif" font-size="14.00" fill="#000000">I</text>
</g>
<!-- B&#45;&gt;I -->
<g id="edge9" class="edge">
<title>B-&gt;I</title>
<path fill="none" stroke="#000000" d="M653.1295,-151.0647C628.7778,-138.8889 589.238,-119.119 561.7715,-105.3858"/>
<polygon fill="#000000" stroke="#000000" points="563.114,-102.1439 552.6045,-100.8022 559.9835,-108.4049 563.114,-102.1439"/>
</g>
<!-- J -->
<g id="node11" class="node">
<title>J</title>
<ellipse fill="none" stroke="#000000" cx="603" cy="-90" rx="27" ry="18"/>
<text text-anchor="middle" x="603" y="-86.3" font-family="Times,serif" font-size="14.00" fill="#000000">J</text>
</g>
<!-- B&#45;&gt;J -->
<g id="edge10" class="edge">
<title>B-&gt;J</title>
<path fill="none" stroke="#000000" d="M659.7307,-146.7307C649.803,-136.803 636.6847,-123.6847 625.5637,-112.5637"/>
<polygon fill="#000000" stroke="#000000" points="627.7933,-109.8436 618.2473,-105.2473 622.8436,-114.7933 627.7933,-109.8436"/>
</g>
<!-- K -->
<g id="node12" class="node">
<title>K</title>
<ellipse fill="none" stroke="#000000" cx="675" cy="-90" rx="27" ry="18"/>
<text text-anchor="middle" x="675" y="-86.3" font-family="Times,serif" font-size="14.00" fill="#000000">K</text>
</g>
<!-- B&#45;&gt;K -->
<g id="edge11" class="edge">
<title>B-&gt;K</title>
<path fill="none" stroke="#000000" d="M675,-143.8314C675,-136.131 675,-126.9743 675,-118.4166"/>
<polygon fill="#000000" stroke="#000000" points="678.5001,-118.4132 675,-108.4133 671.5001,-118.4133 678.5001,-118.4132"/>
</g>
<!-- L -->
<g id="node13" class="node">
<title>L</title>
<ellipse fill="none" stroke="#000000" cx="747" cy="-90" rx="27" ry="18"/>
<text text-anchor="middle" x="747" y="-86.3" font-family="Times,serif" font-size="14.00" fill="#000000">L</text>
</g>
<!-- B&#45;&gt;L -->
<g id="edge12" class="edge">
<title>B-&gt;L</title>
<path fill="none" stroke="#000000" d="M690.2693,-146.7307C700.197,-136.803 713.3153,-123.6847 724.4363,-112.5637"/>
<polygon fill="#000000" stroke="#000000" points="727.1564,-114.7933 731.7527,-105.2473 722.2067,-109.8436 727.1564,-114.7933"/>
</g>
<!-- M -->
<g id="node14" class="node">
<title>M</title>
<ellipse fill="none" stroke="#000000" cx="819" cy="-90" rx="27" ry="18"/>
<text text-anchor="middle" x="819" y="-86.3" font-family="Times,serif" font-size="14.00" fill="#000000">M</text>
</g>
<!-- C&#45;&gt;M -->
<g id="edge13" class="edge">
<title>C-&gt;M</title>
<path fill="none" stroke="#000000" d="M875.7307,-146.7307C865.803,-136.803 852.6847,-123.6847 841.5637,-112.5637"/>
<polygon fill="#000000" stroke="#000000" points="843.7933,-109.8436 834.2473,-105.2473 838.8436,-114.7933 843.7933,-109.8436"/>
</g>
<!-- N -->
<g id="node15" class="node">
<title>N</title>
<ellipse fill="none" stroke="#000000" cx="891" cy="-90" rx="27" ry="18"/>
<text text-anchor="middle" x="891" y="-86.3" font-family="Times,serif" font-size="14.00" fill="#000000">N</text>
</g>
<!-- C&#45;&gt;N -->
<g id="edge14" class="edge">
<title>C-&gt;N</title>
<path fill="none" stroke="#000000" d="M891,-143.8314C891,-136.131 891,-126.9743 891,-118.4166"/>
<polygon fill="#000000" stroke="#000000" points="894.5001,-118.4132 891,-108.4133 887.5001,-118.4133 894.5001,-118.4132"/>
</g>
<!-- O -->
<g id="node16" class="node">
<title>O</title>
<ellipse fill="none" stroke="#000000" cx="963" cy="-90" rx="27" ry="18"/>
<text text-anchor="middle" x="963" y="-86.3" font-family="Times,serif" font-size="14.00" fill="#000000">O</text>
</g>
<!-- C&#45;&gt;O -->
<g id="edge15" class="edge">
<title>C-&gt;O</title>
<path fill="none" stroke="#000000" d="M906.2693,-146.7307C916.197,-136.803 929.3153,-123.6847 940.4363,-112.5637"/>
<polygon fill="#000000" stroke="#000000" points="943.1564,-114.7933 947.7527,-105.2473 938.2067,-109.8436 943.1564,-114.7933"/>
</g>
<!-- P -->
<g id="node17" class="node">
<title>P</title>
<ellipse fill="none" stroke="#000000" cx="1035" cy="-90" rx="27" ry="18"/>
<text text-anchor="middle" x="1035" y="-86.3" font-family="Times,serif" font-size="14.00" fill="#000000">P</text>
</g>
<!-- C&#45;&gt;P -->
<g id="edge16" class="edge">
<title>C-&gt;P</title>
<path fill="none" stroke="#000000" d="M912.8705,-151.0647C937.2222,-138.8889 976.762,-119.119 1004.2285,-105.3858"/>
<polygon fill="#000000" stroke="#000000" points="1006.0165,-108.4049 1013.3955,-100.8022 1002.886,-102.1439 1006.0165,-108.4049"/>
</g>
<!-- Q -->
<g id="node18" class="node">
<title>Q</title>
<ellipse fill="none" stroke="#000000" cx="1107" cy="-90" rx="27" ry="18"/>
<text text-anchor="middle" x="1107" y="-86.3" font-family="Times,serif" font-size="14.00" fill="#000000">Q</text>
</g>
<!-- D&#45;&gt;Q -->
<g id="edge17" class="edge">
<title>D-&gt;Q</title>
<path fill="none" stroke="#000000" d="M1163.7307,-146.7307C1153.803,-136.803 1140.6847,-123.6847 1129.5637,-112.5637"/>
<polygon fill="#000000" stroke="#000000" points="1131.7933,-109.8436 1122.2473,-105.2473 1126.8436,-114.7933 1131.7933,-109.8436"/>
</g>
<!-- R -->
<g id="node19" class="node">
<title>R</title>
<ellipse fill="none" stroke="#000000" cx="1179" cy="-90" rx="27" ry="18"/>
<text text-anchor="middle" x="1179" y="-86.3" font-family="Times,serif" font-size="14.00" fill="#000000">R</text>
</g>
<!-- D&#45;&gt;R -->
<g id="edge18" class="edge">
<title>D-&gt;R</title>
<path fill="none" stroke="#000000" d="M1179,-143.8314C1179,-136.131 1179,-126.9743 1179,-118.4166"/>
<polygon fill="#000000" stroke="#000000" points="1182.5001,-118.4132 1179,-108.4133 1175.5001,-118.4133 1182.5001,-118.4132"/>
</g>
<!-- S -->
<g id="node20" class="node">
<title>S</title>
<ellipse fill="none" stroke="#000000" cx="1251" cy="-90" rx="27" ry="18"/>
<text text-anchor="middle" x="1251" y="-86.3" font-family="Times,serif" font-size="14.00" fill="#000000">S</text>
</g>
<!-- D&#45;&gt;S -->
<g id="edge19" class="edge">
<title>D-&gt;S</title>
<path fill="none" stroke="#000000" d="M1194.2693,-146.7307C1204.197,-136.803 1217.3153,-123.6847 1228.4363,-112.5637"/>
<polygon fill="#000000" stroke="#000000" points="1231.1564,-114.7933 1235.7527,-105.2473 1226.2067,-109.8436 1231.1564,-114.7933"/>
</g>
<!-- T -->
<g id="node21" class="node">
<title>T</title>
<ellipse fill="none" stroke="#000000" cx="1323" cy="-90" rx="27" ry="18"/>
<text text-anchor="middle" x="1323" y="-86.3" font-family="Times,serif" font-size="14.00" fill="#000000">T</text>
</g>
<!-- D&#45;&gt;T -->
<g id="edge20" class="edge">
<title>D-&gt;T</title>
<path fill="none" stroke="#000000" d="M1200.8705,-151.0647C1225.2222,-138.8889 1264.762,-119.119 1292.2285,-105.3858"/>
<polygon fill="#000000" stroke="#000000" points="1294.0165,-108.4049 1301.3955,-100.8022 1290.886,-102.1439 1294.0165,-108.4049"/>
</g>
<!-- U -->
<g id="node22" class="node">
<title>U</title>
<ellipse fill="none" stroke="#000000" cx="27" cy="-18" rx="27" ry="18"/>
<text text-anchor="middle" x="27" y="-14.3" font-family="Times,serif" font-size="14.00" fill="#000000">U</text>
</g>
<!-- E&#45;&gt;U -->
<g id="edge21" class="edge">
<title>E-&gt;U</title>
<path fill="none" stroke="#000000" d="M149.1295,-79.0647C124.7778,-66.8889 85.238,-47.119 57.7715,-33.3858"/>
<polygon fill="#000000" stroke="#000000" points="59.114,-30.1439 48.6045,-28.8022 55.9835,-36.4049 59.114,-30.1439"/>
</g>
<!-- V -->
<g id="node23" class="node">
<title>V</title>
<ellipse fill="none" stroke="#000000" cx="99" cy="-18" rx="27" ry="18"/>
<text text-anchor="middle" x="99" y="-14.3" font-family="Times,serif" font-size="14.00" fill="#000000">V</text>
</g>
<!-- E&#45;&gt;V -->
<g id="edge22" class="edge">
<title>E-&gt;V</title>
<path fill="none" stroke="#000000" d="M155.7307,-74.7307C145.803,-64.803 132.6847,-51.6847 121.5637,-40.5637"/>
<polygon fill="#000000" stroke="#000000" points="123.7933,-37.8436 114.2473,-33.2473 118.8436,-42.7933 123.7933,-37.8436"/>
</g>
<!-- W -->
<g id="node24" class="node">
<title>W</title>
<ellipse fill="none" stroke="#000000" cx="171" cy="-18" rx="27" ry="18"/>
<text text-anchor="middle" x="171" y="-14.3" font-family="Times,serif" font-size="14.00" fill="#000000">W</text>
</g>
<!-- E&#45;&gt;W -->
<g id="edge23" class="edge">
<title>E-&gt;W</title>
<path fill="none" stroke="#000000" d="M171,-71.8314C171,-64.131 171,-54.9743 171,-46.4166"/>
<polygon fill="#000000" stroke="#000000" points="174.5001,-46.4132 171,-36.4133 167.5001,-46.4133 174.5001,-46.4132"/>
</g>
<!-- X -->
<g id="node25" class="node">
<title>X</title>
<ellipse fill="none" stroke="#000000" cx="243" cy="-18" rx="27" ry="18"/>
<text text-anchor="middle" x="243" y="-14.3" font-family="Times,serif" font-size="14.00" fill="#000000">X</text>
</g>
<!-- E&#45;&gt;X -->
<g id="edge24" class="edge">
<title>E-&gt;X</title>
<path fill="none" stroke="#000000" d="M186.2693,-74.7307C196.197,-64.803 209.3153,-51.6847 220.4363,-40.5637"/>
<polygon fill="#000000" stroke="#000000" points="223.1564,-42.7933 227.7527,-33.2473 218.2067,-37.8436 223.1564,-42.7933"/>
</g>
<!-- Y -->
<g id="node26" class="node">
<title>Y</title>
<ellipse fill="none" stroke="#000000" cx="315" cy="-18" rx="27" ry="18"/>
<text text-anchor="middle" x="315" y="-14.3" font-family="Times,serif" font-size="14.00" fill="#000000">Y</text>
</g>
<!-- F&#45;&gt;Y -->
<g id="edge25" class="edge">
<title>F-&gt;Y</title>
<path fill="none" stroke="#000000" d="M315,-71.8314C315,-64.131 315,-54.9743 315,-46.4166"/>
<polygon fill="#000000" stroke="#000000" points="318.5001,-46.4132 315,-36.4133 311.5001,-46.4133 318.5001,-46.4132"/>
</g>
<!-- Z -->
<g id="node27" class="node">
<title>Z</title>
<ellipse fill="none" stroke="#000000" cx="387" cy="-18" rx="27" ry="18"/>
<text text-anchor="middle" x="387" y="-14.3" font-family="Times,serif" font-size="14.00" fill="#000000">Z</text>
</g>
<!-- F&#45;&gt;Z -->
<g id="edge26" class="edge">
<title>F-&gt;Z</title>
<path fill="none" stroke="#000000" d="M330.2693,-74.7307C340.197,-64.803 353.3153,-51.6847 364.4363,-40.5637"/>
<polygon fill="#000000" stroke="#000000" points="367.1564,-42.7933 371.7527,-33.2473 362.2067,-37.8436 367.1564,-42.7933"/>
</g>
</g>
</svg>