<?xml version="1.0" encoding="UTF-8" standalone="no"?>
<!DOCTYPE svg PUBLIC "-//W3C//DTD SVG 1.1//EN" "http://www.w3.org/Graphics/SVG/1.1/DTD/svg11.dtd">
<!-- Generated by graphviz version 2.40.1 (20161225.0304)
 -->
<!-- Title: G Pages: 1 -->
<svg width="926pt" height="332pt" viewBox="0.00 0.00 926.00 332.00" xmlns="http://www.w3.org/2000/svg" xmlns:xlink="http://www.w3.org/1999/xlink">
<g id="graph0" class="graph" transform="scale(1 1) rotate(0) translate(4 328)">
<title>G</title>
<polygon fill="#ffffff" stroke="transparent" points="-4,4 -4,-328 922,-328 922,4 -4,4"/>
<!-- root -->
<g id="node1" class="node">
<title>root</title>
<ellipse fill="none" stroke="#000000" cx="387" cy="-306" rx="27" ry="18"/>
<text text-anchor="middle" x="387" y="-302.3" font-family="Times,serif" font-size="14.00" fill="#000000">root</text>
</g>
<!-- B -->
<g id="node2" class="node">
<title>B</title>
<ellipse fill="none" stroke="#000000" cx="207" cy="-234" rx="27" ry="18"/>
<text text-anchor="middle" x="207" y="-230.3" font-family="Times,serif" font-size="14.00" fill="#000000">B</text>
</g>
<!-- root&#45;&gt;B -->
<g id="edge1" class="edge">
<title>root-&gt;B</title>
<path fill="none" stroke="#000000" d="M363.8366,-296.7347C332.3313,-284.1325 275.7927,-261.5171 239.8982,-247.1593"/>
<polygon fill="#000000" stroke="#000000" points="240.9442,-243.8081 230.3596,-243.3438 238.3444,-250.3075 240.9442,-243.8081"/>
</g>
<!-- A -->
<g id="node3" class="node">
<title>A</title>
<ellipse fill="none" stroke="#000000" cx="495" cy="-234" rx="27" ry="18"/>
<text text-anchor="middle" x="495" y="-230.3" font-family="Times,serif" font-size="14.00" fill="#000000">A</text>
</g>
<!-- root&#45;&gt;A -->
<g id="edge2" class="edge">
<title>root-&gt;A</title>
<path fill="none" stroke="#000000" d="M406.3082,-293.1278C423.3555,-281.763 448.4019,-265.0654 467.5344,-252.3104"/>
<polygon fill="#000000" stroke="#000000" points="469.4799,-255.2199 475.8589,-246.7607 465.5969,-249.3956 469.4799,-255.2199"/>
</g>
<!-- F -->
<g id="node4" class="node">
<title>F</title>
<ellipse fill="none" stroke="#000000" cx="99" cy="-162" rx="27" ry="18"/>
<text text-anchor="middle" x="99" y="-158.3" font-family="Times,serif" font-size="14.00" fill="#000000">F</text>
</g>
<!-- B&#45;&gt;F -->
<g id="edge3" class="edge">
<title>B-&gt;F</title>
<path fill="none" stroke="#000000" d="M187.6918,-221.1278C170.6445,-209.763 145.5981,-193.0654 126.4656,-180.3104"/>
<polygon fill="#000000" stroke="#000000" points="128.4031,-177.3956 118.1411,-174.7607 124.5201,-183.2199 128.4031,-177.3956"/>
</g>
<!-- E -->
<g id="node5" class="node">
<title>E</title>
<ellipse fill="none" stroke="#000000" cx="207" cy="-162" rx="27" ry="18"/>
<text text-anchor="middle" x="207" y="-158.3" font-family="Times,serif" font-size="14.00" fill="#000000">E</text>
</g>
<!-- B&#45;&gt;E -->
<g id="edge4" class="edge">
<title>B-&gt;E</title>
<path fill="none" stroke="#000000" d="M207,-215.8314C207,-208.131 207,-198.9743 207,-190.4166"/>
<polygon fill="#000000" stroke="#000000" points="210.5001,-190.4132 207,-180.4133 203.5001,-190.4133 210.5001,-190.4132"/>
</g>
<!-- D -->
<g id="node6" class="node">
<title>D</title>
<ellipse fill="none" stroke="#000000" cx="495" cy="-162" rx="27" ry="18"/>
<text text-anchor="middle" x="495" y="-158.3" font-family="Times,serif" font-size="14.00" fill="#000000">D</text>
</g>
<!-- A&#45;&gt;D -->
<g id="edge5" class="edge">
<title>A-&gt;D</title>
<path fill="none" stroke="#000000" d="M495,-215.8314C495,-208.131 495,-198.9743 495,-190.4166"/>
<polygon fill="#000000" stroke="#000000" points="498.5001,-190.4132 495,-180.4133 491.5001,-190.4133 498.5001,-190.4132"/>
</g>
<!-- C -->
<g id="node7" class="node">
<title>C</title>
<ellipse fill="none" stroke="#000000" cx="711" cy="-162" rx="27" ry="18"/>
<text text-anchor="middle" x="711" y="-158.3" font-family="Times,serif" font-size="14.00" fill="#000000">C</text>
</g>
<!-- A&#45;&gt;C -->
<g id="edge6" class="edge">
<title>A-&gt;C</title>
<path fill="none" stroke="#000000" d="M519.3581,-225.8806C557.947,-213.0177 633.2439,-187.9187 677.0896,-173.3035"/>
<polygon fill="#000000" stroke="#000000" points="678.3509,-176.5724 686.7309,-170.0897 676.1373,-169.9316 678.3509,-176.5724"/>
</g>
<!-- N -->
<g id="node8" class="node">
<title>N</title>
<ellipse fill="none" stroke="#000000" cx="27" cy="-90" rx="27" ry="18"/>
<text text-anchor="middle" x="27" y="-86.3" font-family="Times,serif" font-size="14.00" fill="#000000">N</text>
</g>
<!-- F&#45;&gt;N -->
<g id="edge7" class="edge">
<title>F-&gt;N</title>
<path fill="none" stroke="#000000" d="M83.7307,-146.7307C73.803,-136.803 60.6847,-123.6847 49.5637,-112.5637"/>
<polygon fill="#000000" stroke="#000000" points="51.7933,-109.8436 42.2473,-105.2473 46.8436,-114.7933 51.7933,-109.8436"/>
</g>
<!-- M -->
<g id="node9" class="node">
<title>M</title>
<ellipse fill="none" stroke="#000000" cx="99" cy="-90" rx="27" ry="18"/>
<text text-anchor="middle" x="99" y="-86.3" font-family="Times,serif" font-size="14.00" fill="#000000">M</text>
</g>
<!-- F&#45;&gt;M -->
<g id="edge8" class="edge">
<title>F-&gt;M</title>
<path fill="none" stroke="#000000" d="M99,-143.8314C99,-136.131 99,-126.9743 99,-118.4166"/>
<polygon fill="#000000" stroke="#000000" points="102.5001,-118.4132 99,-108.4133 95.5001,-118.4133 102.5001,-118.4132"/>
</g>
<!-- L -->
<g id="node10" class="node">
<title>L</title>
<ellipse fill="none" stroke="#000000" cx="171" cy="-90" rx="27" ry="18"/>
<text text-anchor="middle" x="171" y="-86.3" font-family="Times,serif" font-size="14.00" fill="#000000">L</text>
</g>
<!-- E&#45;&gt;L -->
<g id="edge9" class="edge">
<title>E-&gt;L</title>
<path fill="none" stroke="#000000" d="M198.2854,-144.5708C194.0403,-136.0807 188.8464,-125.6929 184.1337,-116.2674"/>
<polygon fill="#000000" stroke="#000000" points="187.237,-114.6477 179.6343,-107.2687 180.976,-117.7782 187.237,-114.6477"/>
</g>
<!-- K -->
<g id="node11" class="node">
<title>K</title>
<ellipse fill="none" stroke="#000000" cx="243" cy="-90" rx="27" ry="18"/>
<text text-anchor="middle" x="243" y="-86.3" font-family="Times,serif" font-size="14.00" fill="#000000">K</text>
</g>
<!-- E&#45;&gt;K -->
<g id="edge10" class="edge">
<title>E-&gt;K</title>
<path fill="none" stroke="#000000" d="M215.7146,-144.5708C219.9597,-136.0807 225.1536,-125.6929 229.8663,-116.2674"/>
<polygon fill="#000000" stroke="#000000" points="233.024,-117.7782 234.3657,-107.2687 226.763,-114.6477 233.024,-117.7782"/>
</g>
<!-- J -->
<g id="node12" class="node">
<title>J</title>
<ellipse fill="none" stroke="#000000" cx="459" cy="-90" rx="27" ry="18"/>
<text text-anchor="middle" x="459" y="-86.3" font-family="Times,serif" font-size="14.00" fill="#000000">J</text>
</g>
<!-- D&#45;&gt;J -->
<g id="edge11" class="edge">
<title>D-&gt;J</title>
<path fill="none" stroke="#000000" d="M486.2854,-144.5708C482.0403,-136.0807 476.8464,-125.6929 472.1337,-116.2674"/>
<polygon fill="#000000" stroke="#000000" points="475.237,-114.6477 467.6343,-107.2687 468.976,-117.7782 475.237,-114.6477"/>
</g>
<!-- I -->
<g id="node13" class="node">
<title>I</title>
<ellipse fill="none" stroke="#000000" cx="531" cy="-90" rx="27" ry="18"/>
<text text-anchor="middle" x="531" y="-86.3" font-family="Times,serif" font-size="14.00" fill="#000000">I</text>
</g>
<!-- D&#45;&gt;I -->
<g id="edge12" class="edge">
<title>D-&gt;I</title>
<path fill="none" stroke="#000000" d="M503.7146,-144.5708C507.9597,-136.0807 513.1536,-125.6929 517.8663,-116.2674"/>
<polygon fill="#000000" stroke="#000000" points="521.024,-117.7782 522.3657,-107.2687 514.763,-114.6477 521.024,-117.7782"/>
</g>
<!-- H -->
<g id="node14" class="node">
<title>H</title>
<ellipse fill="none" stroke="#000000" cx="711" cy="-90" rx="27" ry="18"/>
<text text-anchor="middle" x="711" y="-86.3" font-family="Times,serif" font-size="14.00" fill="#000000">H</text>
</g>
<!-- C&#45;&gt;H -->
<g id="edge13" class="edge">
<title>C-&gt;H</title>
<path fill="none" stroke="#000000" d="M711,-143.8314C711,-136.131 711,-126.9743 711,-118.4166"/>
<polygon fill="#000000" stroke="#000000" points="714.5001,-118.4132 711,-108.4133 707.5001,-118.4133 714.5001,-118.4132"/>
</g>
<!-- G -->
<g id="node15" class="node">
<title>G</title>
<ellipse fill="none" stroke="#000000" cx="819" cy="-90" rx="27" ry="18"/>
<text text-anchor="middle" x="819" y="-86.3" font-family="Times,serif" font-size="14.00" fill="#000000">G</text>
</g>
<!-- C&#45;&gt;G -->
<g id="edge14" class="edge">
<title>C-&gt;G</title>
<path fill="none" stroke="#000000" d="M730.3082,-149.1278C747.3555,-137.763 772.4019,-121.0654 791.5344,-108.3104"/>
<polygon fill="#000000" stroke="#000000" points="793.4799,-111.2199 799.8589,-102.7607 789.5969,-105.3956 793.4799,-111.2199"/>
</g>
<!-- Z -->
<g id="node16" class="node">
<title>Z</title>
<ellipse fill="none" stroke="#000000" cx="99" cy="-18" rx="27" ry="18"/>
<text text-anchor="middle" x="99" y="-14.3" font-family="Times,serif" font-size="14.00" fill="#000000">Z</text>
</g>
<!-- L&#45;&gt;Z -->
<g id="edge15" class="edge">
<title>L-&gt;Z</title>
<path fill="none" stroke="#000000" d="M155.7307,-74.7307C145.803,-64.803 132.6847,-51.6847 121.5637,-40.5637"/>
<polygon fill="#000000" stroke="#000000" points="123.7933,-37.8436 114.2473,-33.2473 118.8436,-42.7933 123.7933,-37.8436"/>
</g>
<!-- Y -->
<g id="node17" class="node">
<title>Y</title>
<ellipse fill="none" stroke="#000000" cx="171" cy="-18" rx="27" ry="18"/>
<text text-anchor="middle" x="171" y="-14.3" font-family="Times,serif" font-size="14.00" fill="#000000">Y</text>
</g>
<!-- L&#45;&gt;Y -->
<g id="edge16" class="edge">
<title>L-&gt;Y</title>
<path fill="none" stroke="#000000" d="M171,-71.8314C171,-64.131 171,-54.9743 171,-46.4166"/>
<polygon fill="#000000" stroke="#000000" points="174.5001,-46.4132 171,-36.4133 167.5001,-46.4133 174.5001,-46.4132"/>
</g>
<!-- X -->
<g id="node18" class="node">
<title>X</title>
<ellipse fill="none" stroke="#000000" cx="243" cy="-18" rx="27" ry="18"/>
<text text-anchor="middle" x="243" y="-14.3" font-family="Times,serif" font-size="14.00" fill="#000000">X</text>
</g>
<!-- K&#45;&gt;X -->
<g id="edge17" class="edge">
<title>K-&gt;X</title>
<path fill="none" stroke="#000000" d="M243,-71.8314C243,-64.131 243,-54.9743 243,-46.4166"/>
<polygon fill="#000000" stroke="#000000" points="246.5001,-46.4132 243,-36.4133 239.5001,-46.4133 246.5001,-46.4132"/>
</g>
<!-- W -->
<g id="node19" class="node">
<title>W</title>
<ellipse fill="none" stroke="#000000" cx="315" cy="-18" rx="27" ry="18"/>
<text text-anchor="middle" x="315" y="-14.3" font-family="Times,serif" font-size="14.00" fill="#000000">W</text>
</g>
<!-- K&#45;&gt;W -->
<g id="edge18" class="edge">
<title>K-&gt;W</title>
<path fill="none" stroke="#000000" d="M258.2693,-74.7307C268.197,-64.803 281.3153,-51.6847 292.4363,-40.5637"/>
<polygon fill="#000000" stroke="#000000" points="295.1564,-42.7933 299.7527,-33.2473 290.2067,-37.8436 295.1564,-42.7933"/>
</g>
<!-- V -->
<g id="node20" class="node">
<title>V</title>
<ellipse fill="none" stroke="#000000" cx="387" cy="-18" rx="27" ry="18"/>
<text text-anchor="middle" x="387" y="-14.3" font-family="Times,serif" font-size="14.00" fill="#000000">V</text>
</g>
<!-- J&#45;&gt;V -->
<g id="edge19" class="edge">
<title>J-&gt;V</title>
<path fill="none" stroke="#000000" d="M443.7307,-74.7307C433.803,-64.803 420.6847,-51.6847 409.5637,-40.5637"/>
<polygon fill="#000000" stroke="#000000" points="411.7933,-37.8436 402.2473,-33.2473 406.8436,-42.7933 411.7933,-37.8436"/>
</g>
<!-- U -->
<g id="node21" class="node">
<title>U</title>
<ellipse fill="none" stroke="#000000" cx="459" cy="-18" rx="27" ry="18"/>
<text text-anchor="middle" x="459" y="-14.3" font-family="Times,serif" font-size="14.00" fill="#000000">U</text>
</g>
<!-- J&#45;&gt;U -->
<g id="edge20" class="edge">
<title>J-&gt;U</title>
<path fill="none" stroke="#000000" d="M459,-71.8314C459,-64.131 459,-54.9743 459,-46.4166"/>
<polygon fill="#000000" stroke="#000000" points="462.5001,-46.4132 459,-36.4133 455.5001,-46.4133 462.5001,-46.4132"/>
</g>
<!-- T -->
<g id="node22" class="node">
<title>T</title>
<ellipse fill="none" stroke="#000000" cx="531" cy="-18" rx="27" ry="18"/>
<text text-anchor="middle" x="531" y="-14.3" font-family="Times,serif" font-size="14.00" fill="#000000">T</text>
</g>
<!-- I&#45;&gt;T -->
<g id="edge21" class="edge">
<title>I-&gt;T</title>
<path fill="none" stroke="#000000" d="M531,-71.8314C531,-64.131 531,-54.9743 531,-46.4166"/>
<polygon fill="#000000" stroke="#000000" points="534.5001,-46.4132 531,-36.4133 527.5001,-46.4133 534.5001,-46.4132"/>
</g>
<!-- S -->
<g id="node23" class="node">
<title>S</title>
<ellipse fill="none" stroke="#000000" cx="603" cy="-18" rx="27" ry="18"/>
<text text-anchor="middle" x="603" y="-14.3" font-family="Times,serif" font-size="14.00" fill="#000000">S</text>
</g>
<!-- I&#45;&gt;S -->
<g id="edge22" class="edge">
<title>I-&gt;S</title>
<path fill="none" stroke="#000000" d="M546.2693,-74.7307C556.197,-64.803 569.3153,-51.6847 580.4363,-40.5637"/>
<polygon fill="#000000" stroke="#000000" points="583.1564,-42.7933 587.7527,-33.2473 578.2067,-37.8436 583.1564,-42.7933"/>
</g>
<!-- R -->
<g id="node24" class="node">
<title>R</title>
<ellipse fill="none" stroke="#000000" cx="675" cy="-18" rx="27" ry="18"/>
<text text-anchor="middle" x="675" y="-14.3" font-family="Times,serif" font-size="14.00" fill="#000000">R</text>
</g>
<!-- H&#45;&gt;R -->
<g id="edge23" class="edge">
<title>H-&gt;R</title>
<path fill="none" stroke="#000000" d="M702.2854,-72.5708C698.0403,-64.0807 692.8464,-53.6929 688.1337,-44.2674"/>
<polygon fill="#000000" stroke="#000000" points="691.237,-42.6477 683.6343,-35.2687 684.976,-45.7782 691.237,-42.6477"/>
</g>
<!-- Q -->
<g id="node25" class="node">
<title>Q</title>
<ellipse fill="none" stroke="#000000" cx="747" cy="-18" rx="27" ry="18"/>
<text text-anchor="middle" x="747" y="-14.3" font-family="Times,serif" font-size="14.00" fill="#000000">Q</text>
</g>
<!-- H&#45;&gt;Q -->
<g id="edge24" class="edge">
<title>H-&gt;Q</title>
<path fill="none" stroke="#000000" d="M719.7146,-72.5708C723.9597,-64.0807 729.1536,-53.6929 733.8663,-44.2674"/>
<polygon fill="#000000" stroke="#000000" points="737.024,-45.7782 738.3657,-35.2687 730.763,-42.6477 737.024,-45.7782"/>
</g>
<!-- P -->
<g id="node26" class="node">
<title>P</title>
<ellipse fill="none" stroke="#000000" cx="819" cy="-18" rx="27" ry="18"/>
<text text-anchor="middle" x="819" y="-14.3" font-family="Times,serif" font-size="14.00" fill="#000000">P</text>
</g>
<!-- G&#45;&gt;P -->
<g id="edge25" class="edge">
<title>G-&gt;P</title>
<path fill="none" stroke="#000000" d="M819,-71.8314C819,-64.131 819,-54.9743 819,-46.4166"/>
<polygon fill="#000000" stroke="#000000" points="822.5001,-46.4132 819,-36.4133 815.5001,-46.4133 822.5001,-46.4132"/>
</g>
<!-- O -->
<g id="node27" class="node">
<title>O</title>
<ellipse fill="none" stroke="#000000" cx="891" cy="-18" rx="27" ry="18"/>
<text text-anchor="middle" x="891" y="-14.3" font-family="Times,serif" font-size="14.00" fill="#000000">O</text>
</g>
<!-- G&#45;&gt;O -->
<g id="edge26" class="edge">
<title>G-&gt;O</title>
<path fill="none" stroke="#000000" d="M834.2693,-74.7307C844.197,-64.803 857.3153,-51.6847 868.4363,-40.5637"/>
<polygon fill="#000000" stroke="#000000" points="871.1564,-42.7933 875.7527,-33.2473 866.2067,-37.8436 871.1564,-42.7933"/>
</g>
</g>
</svg>