<svg xmlns="http://www.w3.org/2000/svg" width="1219.205078125" height="619.4884033203125" viewBox="-404.32666015625 -261.2909851074219 1219.205078125 619.4884033203125"><title>Neo4j Graph Visualization</title><desc>Created using Neo4j (http://www.neo4j.com/)</desc><g class="layer relationships"><g class="relationship" transform="translate(-367.826658574211 279.4798749143668) rotate(357.22251050845705)"><path class="outline" fill="#68BDF6" stroke="none" d="M 32.5 0.5 L 74.36562334058866 0.5 L 74.36562334058866 -0.5 L 32.5 -0.5 Z M 98.16249834058866 0.5 L 140.0281216811773 0.5 L 140.0281216811773 3.5 L 147.0281216811773 0 L 140.0281216811773 -3.5 L 140.0281216811773 -0.5 L 98.16249834058866 -0.5 Z"/><text text-anchor="middle" pointer-events="none" font-size="8px" fill="#000000" x="86.26406084058866" y="3" font-family="sans-serif">2085</text></g><g class="relationship" transform="translate(-72.28167419144043 192.38776445840165) rotate(506.0013427470153)"><path class="outline" fill="#68BDF6" stroke="none" d="M 32.5 0.5 L 54.698461346527736 0.5 L 54.698461346527736 -0.5 L 32.5 -0.5 Z M 78.49533634652774 0.5 L 100.69379769305547 0.5 L 100.69379769305547 3.5 L 107.69379769305547 0 L 100.69379769305547 -3.5 L 100.69379769305547 -0.5 L 78.49533634652774 -0.5 Z"/><text text-anchor="middle" pointer-events="none" font-size="8px" fill="#000000" x="66.59689884652774" y="3" transform="rotate(180 66.59689884652774 0)" font-family="sans-serif">4047</text></g><g class="relationship" transform="translate(-72.28167419144043 192.38776445840165) rotate(380.13366255116694)"><path class="outline" fill="#68BDF6" stroke="none" d="M 32.5 0.5 L 48.107004502965836 0.5 L 48.107004502965836 -0.5 L 32.5 -0.5 Z M 71.90387950296584 0.5 L 87.51088400593167 0.5 L 87.51088400593167 3.5 L 94.51088400593167 0 L 87.51088400593167 -3.5 L 87.51088400593167 -0.5 L 71.90387950296584 -0.5 Z"/><text text-anchor="middle" pointer-events="none" font-size="8px" fill="#000000" x="60.005442002965836" y="3" font-family="sans-serif">4532</text></g><g class="relationship" transform="translate(46.96785186552181 236.1063553684266) rotate(406.7577996701124)"><path class="outline" fill="#68BDF6" stroke="none" d="M 32.5 0.5 L 43.349157282147665 0.5 L 43.349157282147665 -0.5 L 32.5 -0.5 Z M 67.14603228214767 0.5 L 77.99518956429533 0.5 L 77.99518956429533 3.5 L 84.99518956429533 0 L 77.99518956429533 -3.5 L 77.99518956429533 -0.5 L 67.14603228214767 -0.5 Z"/><text text-anchor="middle" pointer-events="none" font-size="8px" fill="#000000" x="55.247594782147665" y="3" font-family="sans-serif">2541</text></g><g class="relationship" transform="translate(127.46190644375017 321.6973989904487) rotate(356.88137099468815)"><path class="outline" fill="#68BDF6" stroke="none" d="M 32.5 0.5 L 45.656141151782045 0.5 L 45.656141151782045 -0.5 L 32.5 -0.5 Z M 69.45301615178204 0.5 L 82.60915730356409 0.5 L 82.60915730356409 3.5 L 89.60915730356409 0 L 82.60915730356409 -3.5 L 82.60915730356409 -0.5 L 69.45301615178204 -0.5 Z"/><text text-anchor="middle" pointer-events="none" font-size="8px" fill="#000000" x="57.554578651782045" y="3" font-family="sans-serif">3068</text></g><g class="relationship" transform="translate(249.39022429783944 315.05423689256685) rotate(308.4447870896954)"><path class="outline" fill="#68BDF6" stroke="none" d="M 32.5 0.5 L 41.8718970568286 0.5 L 41.8718970568286 -0.5 L 32.5 -0.5 Z M 65.6687720568286 0.5 L 75.0406691136572 0.5 L 75.0406691136572 3.5 L 82.0406691136572 0 L 75.0406691136572 -3.5 L 75.0406691136572 -0.5 L 65.6687720568286 -0.5 Z"/><text text-anchor="middle" pointer-events="none" font-size="8px" fill="#000000" x="53.7703345568286" y="3" font-family="sans-serif">3709</text></g><g class="relationship" transform="translate(320.60705244917636 225.3451054227591) rotate(245.54161812191165)"><path class="outline" fill="#68BDF6" stroke="none" d="M 32.5 0.5 L 37.71871134212657 0.5 L 37.71871134212657 -0.5 L 32.5 -0.5 Z M 61.51558634212657 0.5 L 66.73429768425314 0.5 L 66.73429768425314 3.5 L 73.73429768425314 0 L 66.73429768425314 -3.5 L 66.73429768425314 -0.5 L 61.51558634212657 -0.5 Z"/><text text-anchor="middle" pointer-events="none" font-size="8px" fill="#000000" x="49.61714884212657" y="3" transform="rotate(180 49.61714884212657 0)" font-family="sans-serif">3529</text></g><g class="relationship" transform="translate(184.29562004902724 66.6229780117502) rotate(393.89139556060456)"><path class="outline" fill="#68BDF6" stroke="none" d="M 32.5 0.5 L 40.21381248079177 0.5 L 40.21381248079177 -0.5 L 32.5 -0.5 Z M 64.01068748079177 0.5 L 71.72449996158355 0.5 L 71.72449996158355 3.5 L 78.72449996158355 0 L 71.72449996158355 -3.5 L 71.72449996158355 -0.5 L 64.01068748079177 -0.5 Z"/><text text-anchor="middle" pointer-events="none" font-size="8px" fill="#000000" x="52.11224998079177" y="3" font-family="sans-serif">5172</text></g><g class="relationship" transform="translate(78.73329367866538 50.856450133406156) rotate(368.4947611812745)"><path class="outline" fill="#68BDF6" stroke="none" d="M 32.5 0.5 L 37.96819100054656 0.5 L 37.96819100054656 -0.5 L 32.5 -0.5 Z M 61.76506600054656 0.5 L 67.23325700109312 0.5 L 67.23325700109312 3.5 L 74.23325700109312 0 L 67.23325700109312 -3.5 L 67.23325700109312 -0.5 L 61.76506600054656 -0.5 Z"/><text text-anchor="middle" pointer-events="none" font-size="8px" fill="#000000" x="49.86662850054656" y="3" font-family="sans-serif">6132</text></g><g class="relationship" transform="translate(78.73329367866538 50.856450133406156) rotate(276.2902159751918)"><path class="outline" fill="#68BDF6" stroke="none" d="M 32.5 0.5 L 45.32867945130162 0.5 L 45.32867945130162 -0.5 L 32.5 -0.5 Z M 73.57477320130161 0.5 L 86.40345265260324 0.5 L 86.40345265260324 3.5 L 93.40345265260324 0 L 86.40345265260324 -3.5 L 86.40345265260324 -0.5 L 73.57477320130161 -0.5 Z"/><text text-anchor="middle" pointer-events="none" font-size="8px" fill="#000000" x="59.45172632630162" y="3" font-family="sans-serif">12082</text></g><g class="relationship" transform="translate(212.0399530611203 -69.35295957259703) rotate(182.3650741150518)"><path class="outline" fill="#68BDF6" stroke="none" d="M 32.5 0.5 L 42.18394888369297 0.5 L 42.18394888369297 -0.5 L 32.5 -0.5 Z M 70.43004263369298 0.5 L 80.11399151738594 0.5 L 80.11399151738594 3.5 L 87.11399151738594 0 L 80.11399151738594 -3.5 L 80.11399151738594 -0.5 L 70.43004263369298 -0.5 Z"/><text text-anchor="middle" pointer-events="none" font-size="8px" fill="#000000" x="56.30699575869297" y="3" transform="rotate(180 56.30699575869297 0)" font-family="sans-serif">14246</text></g><g class="relationship" transform="translate(212.0399530611203 -69.35295957259703) rotate(346.0031626685377)"><path class="outline" fill="#68BDF6" stroke="none" d="M 32.5 0.5 L 42.60409364708584 0.5 L 42.60409364708584 -0.5 L 32.5 -0.5 Z M 66.40096864708585 0.5 L 76.50506229417168 0.5 L 76.50506229417168 3.5 L 83.50506229417168 0 L 76.50506229417168 -3.5 L 76.50506229417168 -0.5 L 66.40096864708585 -0.5 Z"/><text text-anchor="middle" pointer-events="none" font-size="8px" fill="#000000" x="54.50253114708584" y="3" font-family="sans-serif">2335</text></g><g class="relationship" transform="translate(324.6007181732896 -97.41091094538447) rotate(344.8729916757728)"><path class="outline" fill="#68BDF6" stroke="none" d="M 32.5 0.5 L 39.85279811398636 0.5 L 39.85279811398636 -0.5 L 32.5 -0.5 Z M 63.64967311398636 0.5 L 71.00247122797272 0.5 L 71.00247122797272 3.5 L 78.00247122797272 0 L 71.00247122797272 -3.5 L 71.00247122797272 -0.5 L 63.64967311398636 -0.5 Z"/><text text-anchor="middle" pointer-events="none" font-size="8px" fill="#000000" x="51.75123561398636" y="3" font-family="sans-serif">1961</text></g><g class="relationship" transform="translate(431.2742484859515 -126.24759033331918) rotate(342.81646077330106)"><path class="outline" fill="#68BDF6" stroke="none" d="M 32.5 0.5 L 45.41362378760125 0.5 L 45.41362378760125 -0.5 L 32.5 -0.5 Z M 69.21049878760125 0.5 L 82.1241225752025 0.5 L 82.1241225752025 3.5 L 89.1241225752025 0 L 82.1241225752025 -3.5 L 82.1241225752025 -0.5 L 69.21049878760125 -0.5 Z"/><text text-anchor="middle" pointer-events="none" font-size="8px" fill="#000000" x="57.31206128760125" y="3" font-family="sans-serif">3218</text></g><g class="relationship" transform="translate(547.4694689194368 -162.179441671674) rotate(340.15282730208264)"><path class="outline" fill="#68BDF6" stroke="none" d="M 32.5 0.5 L 46.410324228977444 0.5 L 46.410324228977444 -0.5 L 32.5 -0.5 Z M 70.20719922897744 0.5 L 84.11752345795489 0.5 L 84.11752345795489 3.5 L 91.11752345795489 0 L 84.11752345795489 -3.5 L 84.11752345795489 -0.5 L 70.20719922897744 -0.5 Z"/><text text-anchor="middle" pointer-events="none" font-size="8px" fill="#000000" x="58.308761728977444" y="3" font-family="sans-serif">2166</text></g><g class="relationship" transform="translate(778.378417503919 -224.79099119339628) rotate(529.7922884222157)"><path class="outline" fill="#68BDF6" stroke="none" d="M 32.5 0.5 L 42.84043765527225 0.5 L 42.84043765527225 -0.5 L 32.5 -0.5 Z M 66.63731265527224 0.5 L 76.9777503105445 0.5 L 76.9777503105445 3.5 L 83.9777503105445 0 L 76.9777503105445 -3.5 L 76.9777503105445 -0.5 L 66.63731265527224 -0.5 Z"/><text text-anchor="middle" pointer-events="none" font-size="8px" fill="#000000" x="54.73887515527225" y="3" transform="rotate(180 54.73887515527225 0)" font-family="sans-serif">3522</text></g><g class="relationship" transform="translate(212.0399530611203 -69.35295957259703) rotate(369.6940291628508)"><path class="outline" fill="#FF756E" stroke="none" d="M 32.5 1.5 L 147.70950968103895 1.5 L 147.70950968103895 -1.5 L 32.5 -1.5 Z M 189.86575968103895 1.5 L 305.0752693620779 1.5 L 305.0752693620779 4.5 L 314.0752693620779 0 L 305.0752693620779 -4.5 L 305.0752693620779 -1.5 L 189.86575968103895 -1.5 Z"/><text text-anchor="middle" pointer-events="none" font-size="8px" fill="#000000" x="168.78763468103895" y="3" font-family="sans-serif">PART_OF</text></g><g class="relationship" transform="translate(778.378417503919 -224.79099119339628) rotate(497.52028452535114)"><path class="outline" fill="#FF756E" stroke="none" d="M 32.5 1.5 L 135.5275765159224 1.5 L 135.5275765159224 -1.5 L 32.5 -1.5 Z M 177.6838265159224 1.5 L 280.7114030318448 1.5 L 280.7114030318448 4.5 L 289.7114030318448 0 L 280.7114030318448 -4.5 L 280.7114030318448 -1.5 L 177.6838265159224 -1.5 Z"/><text text-anchor="middle" pointer-events="none" font-size="8px" fill="#000000" x="156.6057015159224" y="3" transform="rotate(180 156.6057015159224 0)" font-family="sans-serif">PART_OF</text></g><g class="relationship" transform="translate(431.2742484859515 -126.24759033331918) rotate(489.8996657333614)"><path class="outline" fill="#FF756E" stroke="none" d="M 32.5 1.5 L 182.37348708258273 1.5 L 182.37348708258273 -1.5 L 32.5 -1.5 Z M 224.52973708258273 1.5 L 374.40322416516545 1.5 L 374.40322416516545 4.5 L 383.40322416516545 0 L 374.40322416516545 -4.5 L 374.40322416516545 -1.5 L 224.52973708258273 -1.5 Z"/><text text-anchor="middle" pointer-events="none" font-size="8px" fill="#000000" x="203.45161208258273" y="3" transform="rotate(180 203.45161208258273 0)" font-family="sans-serif">PART_OF</text></g><g class="relationship" transform="translate(212.0399530611203 -69.35295957259703) rotate(459.4617506860788)"><path class="outline" fill="#FF756E" stroke="none" d="M 32.5 1.5 L 108.14996315176671 1.5 L 108.14996315176671 -1.5 L 32.5 -1.5 Z M 150.3062131517667 1.5 L 225.95617630353343 1.5 L 225.95617630353343 4.5 L 234.95617630353343 0 L 225.95617630353343 -4.5 L 225.95617630353343 -1.5 L 150.3062131517667 -1.5 Z"/><text text-anchor="middle" pointer-events="none" font-size="8px" fill="#000000" x="129.2280881517667" y="3" transform="rotate(180 129.2280881517667 0)" font-family="sans-serif">PART_OF</text></g><g class="relationship" transform="translate(324.6007181732896 -97.41091094538447) rotate(478.62988329137517)"><path class="outline" fill="#FF756E" stroke="none" d="M 32.5 1.5 L 140.22429258562084 1.5 L 140.22429258562084 -1.5 L 32.5 -1.5 Z M 182.38054258562084 1.5 L 290.1048351712417 1.5 L 290.1048351712417 4.5 L 299.1048351712417 0 L 290.1048351712417 -4.5 L 290.1048351712417 -1.5 L 182.38054258562084 -1.5 Z"/><text text-anchor="middle" pointer-events="none" font-size="8px" fill="#000000" x="161.30241758562084" y="3" transform="rotate(180 161.30241758562084 0)" font-family="sans-serif">PART_OF</text></g><g class="relationship" transform="translate(663.7443044219455 -204.1491299567041) rotate(501.6478014366355)"><path class="outline" fill="#FF756E" stroke="none" d="M 32.5 1.5 L 293.4174347800451 1.5 L 293.4174347800451 -1.5 L 32.5 -1.5 Z M 335.5736847800451 1.5 L 596.4911195600902 1.5 L 596.4911195600902 4.5 L 605.4911195600902 0 L 596.4911195600902 -4.5 L 596.4911195600902 -1.5 L 335.5736847800451 -1.5 Z"/><text text-anchor="middle" pointer-events="none" font-size="8px" fill="#000000" x="314.4955597800451" y="3" transform="rotate(180 314.4955597800451 0)" font-family="sans-serif">PART_OF</text></g><g class="relationship" transform="translate(547.4694689194368 -162.179441671674) rotate(497.2765335827702)"><path class="outline" fill="#FF756E" stroke="none" d="M 32.5 1.5 L 235.55314107326632 1.5 L 235.55314107326632 -1.5 L 32.5 -1.5 Z M 277.7093910732663 1.5 L 480.76253214653264 1.5 L 480.76253214653264 4.5 L 489.76253214653264 0 L 480.76253214653264 -4.5 L 480.76253214653264 -1.5 L 277.7093910732663 -1.5 Z"/><text text-anchor="middle" pointer-events="none" font-size="8px" fill="#000000" x="256.6312660732663" y="3" transform="rotate(180 256.6312660732663 0)" font-family="sans-serif">PART_OF</text></g><g class="relationship" transform="translate(46.96785186552181 236.1063553684266) rotate(338.15643414346096)"><path class="outline" fill="#FF756E" stroke="none" d="M 32.5 1.5 L 44.07238533705247 1.5 L 44.07238533705247 -1.5 L 32.5 -1.5 Z M 86.22863533705247 1.5 L 97.80102067410493 1.5 L 97.80102067410493 4.5 L 106.80102067410493 0 L 97.80102067410493 -4.5 L 97.80102067410493 -1.5 L 86.22863533705247 -1.5 Z"/><text text-anchor="middle" pointer-events="none" font-size="8px" fill="#000000" x="65.15051033705247" y="3" font-family="sans-serif">PART_OF</text></g><g class="relationship" transform="translate(127.46190644375017 321.6973989904487) rotate(287.2655700254992)"><path class="outline" fill="#FF756E" stroke="none" d="M 32.5 1.5 L 48.66365183408958 1.5 L 48.66365183408958 -1.5 L 32.5 -1.5 Z M 90.81990183408958 1.5 L 106.98355366817916 1.5 L 106.98355366817916 4.5 L 115.98355366817916 0 L 106.98355366817916 -4.5 L 106.98355366817916 -1.5 L 90.81990183408958 -1.5 Z"/><text text-anchor="middle" pointer-events="none" font-size="8px" fill="#000000" x="69.74177683408958" y="3" font-family="sans-serif">PART_OF</text></g><g class="relationship" transform="translate(249.39022429783944 315.05423689256685) rotate(237.96500681170312)"><path class="outline" fill="#FF756E" stroke="none" d="M 32.5 1.5 L 53.66079201002657 1.5 L 53.66079201002657 -1.5 L 32.5 -1.5 Z M 95.81704201002657 1.5 L 116.97783402005314 1.5 L 116.97783402005314 4.5 L 125.97783402005314 0 L 116.97783402005314 -4.5 L 116.97783402005314 -1.5 L 95.81704201002657 -1.5 Z"/><text text-anchor="middle" pointer-events="none" font-size="8px" fill="#000000" x="74.73891701002657" y="3" transform="rotate(180 74.73891701002657 0)" font-family="sans-serif">PART_OF</text></g><g class="relationship" transform="translate(320.60705244917636 225.3451054227591) rotate(194.19764695717515)"><path class="outline" fill="#FF756E" stroke="none" d="M 32.5 1.5 L 56.205929010559814 1.5 L 56.205929010559814 -1.5 L 32.5 -1.5 Z M 98.36217901055981 1.5 L 122.06810802111963 1.5 L 122.06810802111963 4.5 L 131.06810802111963 0 L 122.06810802111963 -4.5 L 122.06810802111963 -1.5 L 98.36217901055981 -1.5 Z"/><text text-anchor="middle" pointer-events="none" font-size="8px" fill="#000000" x="77.28405401055981" y="3" transform="rotate(180 77.28405401055981 0)" font-family="sans-serif">PART_OF</text></g><g class="relationship" transform="translate(-72.28167419144043 192.38776445840165) rotate(358.7382319946274)"><path class="outline" fill="#FF756E" stroke="none" d="M 32.5 1.5 L 98.99499798187775 1.5 L 98.99499798187775 -1.5 L 32.5 -1.5 Z M 141.15124798187776 1.5 L 207.6462459637555 1.5 L 207.6462459637555 4.5 L 216.6462459637555 0 L 207.6462459637555 -4.5 L 207.6462459637555 -1.5 L 141.15124798187776 -1.5 Z"/><text text-anchor="middle" pointer-events="none" font-size="8px" fill="#000000" x="120.07312298187775" y="3" font-family="sans-serif">PART_OF</text></g><g class="relationship" transform="translate(78.73329367866538 50.856450133406156) rotate(416.37816592578315)"><path class="outline" fill="#FF756E" stroke="none" d="M 32.5 1.5 L 59.95914846250905 1.5 L 59.95914846250905 -1.5 L 32.5 -1.5 Z M 102.11539846250905 1.5 L 129.5745469250181 1.5 L 129.5745469250181 4.5 L 138.5745469250181 0 L 129.5745469250181 -4.5 L 129.5745469250181 -1.5 L 102.11539846250905 -1.5 Z"/><text text-anchor="middle" pointer-events="none" font-size="8px" fill="#000000" x="81.03727346250905" y="3" font-family="sans-serif">PART_OF</text></g><g class="relationship" transform="translate(276.62263652341244 128.6440342801088) rotate(511.4363594799391)"><path class="outline" fill="#FF756E" stroke="none" d="M 32.5 1.5 L 39.26620407619845 1.5 L 39.26620407619845 -1.5 L 32.5 -1.5 Z M 81.42245407619845 1.5 L 88.1886581523969 1.5 L 88.1886581523969 4.5 L 97.1886581523969 0 L 88.1886581523969 -4.5 L 88.1886581523969 -1.5 L 81.42245407619845 -1.5 Z"/><text text-anchor="middle" pointer-events="none" font-size="8px" fill="#000000" x="60.34432907619845" y="3" transform="rotate(180 60.34432907619845 0)" font-family="sans-serif">PART_OF</text></g><g class="relationship" transform="translate(184.29562004902724 66.6229780117502) rotate(457.09418556337306)"><path class="outline" fill="#FF756E" stroke="none" d="M 32.5 1.5 L 38.85830213313566 1.5 L 38.85830213313566 -1.5 L 32.5 -1.5 Z M 81.01455213313565 1.5 L 87.37285426627132 1.5 L 87.37285426627132 4.5 L 96.37285426627132 0 L 87.37285426627132 -4.5 L 87.37285426627132 -1.5 L 81.01455213313565 -1.5 Z"/><text text-anchor="middle" pointer-events="none" font-size="8px" fill="#000000" x="59.93642713313566" y="3" transform="rotate(180 59.93642713313566 0)" font-family="sans-serif">PART_OF</text></g><g class="relationship" transform="translate(92.52785224827687 -74.28902339127177) rotate(305.07723797165977)"><path class="outline" fill="#FF756E" stroke="none" d="M 32.5 1.5 L 45.668535950336135 1.5 L 45.668535950336135 -1.5 L 32.5 -1.5 Z M 87.82478595033614 1.5 L 100.99332190067227 1.5 L 100.99332190067227 4.5 L 109.99332190067227 0 L 100.99332190067227 -4.5 L 100.99332190067227 -1.5 L 87.82478595033614 -1.5 Z"/><text text-anchor="middle" pointer-events="none" font-size="8px" fill="#000000" x="66.74666095033614" y="3" font-family="sans-serif">PART_OF</text></g><g class="relationship" transform="translate(212.0399530611203 -69.35295957259703) rotate(250.03169522115303)"><path class="outline" fill="#FF756E" stroke="none" d="M 32.5 1.5 L 39.56877368659551 1.5 L 39.56877368659551 -1.5 L 32.5 -1.5 Z M 81.7250236865955 1.5 L 88.79379737319103 1.5 L 88.79379737319103 4.5 L 97.79379737319103 0 L 88.79379737319103 -4.5 L 88.79379737319103 -1.5 L 81.7250236865955 -1.5 Z"/><text text-anchor="middle" pointer-events="none" font-size="8px" fill="#000000" x="60.64689868659551" y="3" transform="rotate(180 60.64689868659551 0)" font-family="sans-serif">PART_OF</text></g><g class="relationship" transform="translate(-367.826658574211 279.4798749143668) rotate(316.7993330003016)"><path class="outline" fill="#FF756E" stroke="none" d="M 32.5 1.5 L 40.301281235442055 1.5 L 40.301281235442055 -1.5 L 32.5 -1.5 Z M 82.45753123544205 1.5 L 90.25881247088411 1.5 L 90.25881247088411 4.5 L 99.25881247088411 0 L 90.25881247088411 -4.5 L 90.25881247088411 -1.5 L 82.45753123544205 -1.5 Z"/><text text-anchor="middle" pointer-events="none" font-size="8px" fill="#000000" x="61.379406235442055" y="3" font-family="sans-serif">PART_OF</text></g><g class="relationship" transform="translate(-72.28167419144043 192.38776445840165) rotate(539.4325415336116)"><path class="outline" fill="#FF756E" stroke="none" d="M 32.5 1.5 L 80.65950076383452 1.5 L 80.65950076383452 -1.5 L 32.5 -1.5 Z M 122.81575076383452 1.5 L 170.97525152766903 1.5 L 170.97525152766903 4.5 L 179.97525152766903 0 L 170.97525152766903 -4.5 L 170.97525152766903 -1.5 L 122.81575076383452 -1.5 Z"/><text text-anchor="middle" pointer-events="none" font-size="8px" fill="#000000" x="101.73762576383452" y="3" transform="rotate(180 101.73762576383452 0)" font-family="sans-serif">PART_OF</text></g><g class="relationship" transform="translate(-188.50943710984498 270.7804174214473) rotate(220.71349527538325)"><path class="outline" fill="#FF756E" stroke="none" d="M 32.5 1.5 L 36.70729230145832 1.5 L 36.70729230145832 -1.5 L 32.5 -1.5 Z M 78.86354230145832 1.5 L 83.07083460291663 1.5 L 83.07083460291663 4.5 L 92.07083460291663 0 L 83.07083460291663 -4.5 L 83.07083460291663 -1.5 L 78.86354230145832 -1.5 Z"/><text text-anchor="middle" pointer-events="none" font-size="8px" fill="#000000" x="57.78541730145832" y="3" transform="rotate(180 57.78541730145832 0)" font-family="sans-serif">PART_OF</text></g><g class="relationship" transform="translate(78.73329367866538 50.856450133406156) rotate(217.07340582749316)"><path class="outline" fill="#FF756E" stroke="none" d="M 32.5 1.5 L 44.359381950655646 1.5 L 44.359381950655646 -1.5 L 32.5 -1.5 Z M 86.51563195065565 1.5 L 98.37501390131129 1.5 L 98.37501390131129 4.5 L 107.37501390131129 0 L 98.37501390131129 -4.5 L 98.37501390131129 -1.5 L 86.51563195065565 -1.5 Z"/><text text-anchor="middle" pointer-events="none" font-size="8px" fill="#000000" x="65.43750695065565" y="3" transform="rotate(180 65.43750695065565 0)" font-family="sans-serif">PART_OF</text></g><g class="relationship" transform="translate(92.52785224827687 -74.28902339127177) rotate(519.2064841607096)"><path class="outline" fill="#FF756E" stroke="none" d="M 32.5 1.5 L 42.037611752314646 1.5 L 42.037611752314646 -1.5 L 32.5 -1.5 Z M 84.19386175231465 1.5 L 93.73147350462929 1.5 L 93.73147350462929 4.5 L 102.73147350462929 0 L 93.73147350462929 -4.5 L 93.73147350462929 -1.5 L 84.19386175231465 -1.5 Z"/><text text-anchor="middle" pointer-events="none" font-size="8px" fill="#000000" x="63.115736752314646" y="3" transform="rotate(180 63.115736752314646 0)" font-family="sans-serif">PART_OF</text></g></g><g class="layer nodes"><g class="node" transform="translate(-367.826658574211,279.4798749143668)"><circle class="outline" cx="0" cy="0" r="32.5" fill="#68BDF6" stroke="#5CA8DB" stroke-width="2px"/><text text-anchor="middle" pointer-events="none" font-family="sans-serif" dy="2.03125" font-size="32.5" fill="#FFFFFF"/><text text-anchor="middle" pointer-events="none" y="5" font-size="10px" fill="#FFFFFF" font-family="sans-serif"> Quaregnon</text></g><g class="node" transform="translate(-188.50943710984498,270.7804174214473)"><circle class="outline" cx="0" cy="0" r="32.5" fill="#68BDF6" stroke="#5CA8DB" stroke-width="2px"/><text text-anchor="middle" pointer-events="none" font-family="sans-serif" dy="2.03125" font-size="32.5" fill="#FFFFFF"/><text text-anchor="middle" pointer-events="none" y="5" font-size="10px" fill="#FFFFFF" font-family="sans-serif"> Jemappes</text></g><g class="node" transform="translate(-72.28167419144043,192.38776445840165)"><circle class="outline" cx="0" cy="0" r="32.5" fill="#68BDF6" stroke="#5CA8DB" stroke-width="2px"/><text text-anchor="middle" pointer-events="none" font-family="sans-serif" dy="2.03125" font-size="32.5" fill="#FFFFFF"/><text text-anchor="middle" pointer-events="none" y="5" font-size="10px" fill="#FFFFFF" font-family="sans-serif"> Mons</text></g><g class="node" transform="translate(46.96785186552181,236.1063553684266)"><circle class="outline" cx="0" cy="0" r="32.5" fill="#68BDF6" stroke="#5CA8DB" stroke-width="2px"/><text text-anchor="middle" pointer-events="none" font-family="sans-serif" dy="2.03125" font-size="32.5" fill="#FFFFFF"/><text text-anchor="middle" pointer-events="none" y="5" font-size="10px" fill="#FFFFFF" font-family="sans-serif"> Ghlin</text></g><g class="node" transform="translate(127.46190644375017,321.6973989904487)"><circle class="outline" cx="0" cy="0" r="32.5" fill="#68BDF6" stroke="#5CA8DB" stroke-width="2px"/><text text-anchor="middle" pointer-events="none" font-family="sans-serif" dy="2.03125" font-size="32.5" fill="#FFFFFF"/><text text-anchor="middle" pointer-events="none" y="5" font-size="10px" fill="#FFFFFF" font-family="sans-serif"> Erbisoeul</text></g><g class="node" transform="translate(249.39022429783944,315.05423689256685)"><circle class="outline" cx="0" cy="0" r="32.5" fill="#68BDF6" stroke="#5CA8DB" stroke-width="2px"/><text text-anchor="middle" pointer-events="none" font-family="sans-serif" dy="2.03125" font-size="32.5" fill="#FFFFFF"/><text text-anchor="middle" pointer-events="none" y="5" font-size="10px" fill="#FFFFFF" font-family="sans-serif"> Jurbeke</text></g><g class="node" transform="translate(320.60705244917636,225.3451054227591)"><circle class="outline" cx="0" cy="0" r="32.5" fill="#68BDF6" stroke="#5CA8DB" stroke-width="2px"/><text text-anchor="middle" pointer-events="none" font-family="sans-serif" dy="2.03125" font-size="32.5" fill="#FFFFFF"/><text text-anchor="middle" pointer-events="none" y="5" font-size="10px" fill="#FFFFFF" font-family="sans-serif"> Masnuy-Sai…</text></g><g class="node" transform="translate(276.62263652341244,128.6440342801088)"><circle class="outline" cx="0" cy="0" r="32.5" fill="#68BDF6" stroke="#5CA8DB" stroke-width="2px"/><text text-anchor="middle" pointer-events="none" font-family="sans-serif" dy="2.03125" font-size="32.5" fill="#FFFFFF"/><text text-anchor="middle" pointer-events="none" y="5" font-size="10px" fill="#FFFFFF" font-family="sans-serif"> Neufvilles</text></g><g class="node" transform="translate(184.29562004902724,66.6229780117502)"><circle class="outline" cx="0" cy="0" r="32.5" fill="#68BDF6" stroke="#5CA8DB" stroke-width="2px"/><text text-anchor="middle" pointer-events="none" font-family="sans-serif" dy="2.03125" font-size="32.5" fill="#FFFFFF"/><text text-anchor="middle" pointer-events="none" y="5" font-size="10px" fill="#FFFFFF" font-family="sans-serif"> Soignies</text></g><g class="node" transform="translate(78.73329367866538,50.856450133406156)"><circle class="outline" cx="0" cy="0" r="32.5" fill="#68BDF6" stroke="#5CA8DB" stroke-width="2px"/><text text-anchor="middle" pointer-events="none" font-family="sans-serif" dy="2.03125" font-size="32.5" fill="#FFFFFF"/><text text-anchor="middle" pointer-events="none" y="5" font-size="10px" fill="#FFFFFF" font-family="sans-serif"> Braine-le-C…</text></g><g class="node" transform="translate(92.52785224827687,-74.28902339127177)"><circle class="outline" cx="0" cy="0" r="32.5" fill="#68BDF6" stroke="#5CA8DB" stroke-width="2px"/><text text-anchor="middle" pointer-events="none" font-family="sans-serif" dy="2.03125" font-size="32.5" fill="#FFFFFF"/><text text-anchor="middle" pointer-events="none" y="5" font-size="10px" fill="#FFFFFF" font-family="sans-serif"> Enghien</text></g><g class="node" transform="translate(212.0399530611203,-69.35295957259703)"><circle class="outline" cx="0" cy="0" r="32.5" fill="#68BDF6" stroke="#5CA8DB" stroke-width="2px"/><text text-anchor="middle" pointer-events="none" font-family="sans-serif" dy="2.03125" font-size="32.5" fill="#FFFFFF"/><text text-anchor="middle" pointer-events="none" y="5" font-size="10px" fill="#FFFFFF" font-family="sans-serif"> Halle</text></g><g class="node" transform="translate(324.6007181732896,-97.41091094538447)"><circle class="outline" cx="0" cy="0" r="32.5" fill="#68BDF6" stroke="#5CA8DB" stroke-width="2px"/><text text-anchor="middle" pointer-events="none" font-family="sans-serif" dy="2.03125" font-size="32.5" fill="#FFFFFF"/><text text-anchor="middle" pointer-events="none" y="5" font-size="10px" fill="#FFFFFF" font-family="sans-serif"> Buizingen</text></g><g class="node" transform="translate(431.2742484859515,-126.24759033331918)"><circle class="outline" cx="0" cy="0" r="32.5" fill="#68BDF6" stroke="#5CA8DB" stroke-width="2px"/><text text-anchor="middle" pointer-events="none" font-family="sans-serif" dy="2.03125" font-size="32.5" fill="#FFFFFF"/><text text-anchor="middle" pointer-events="none" y="5" font-size="10px" fill="#FFFFFF" font-family="sans-serif"> Lot</text></g><g class="node" transform="translate(547.4694689194368,-162.179441671674)"><circle class="outline" cx="0" cy="0" r="32.5" fill="#68BDF6" stroke="#5CA8DB" stroke-width="2px"/><text text-anchor="middle" pointer-events="none" font-family="sans-serif" dy="2.03125" font-size="32.5" fill="#FFFFFF"/><text text-anchor="middle" pointer-events="none" y="5" font-size="10px" fill="#FFFFFF" font-family="sans-serif"> Ruisbroek</text></g><g class="node" transform="translate(663.7443044219455,-204.1491299567041)"><circle class="outline" cx="0" cy="0" r="32.5" fill="#68BDF6" stroke="#5CA8DB" stroke-width="2px"/><text text-anchor="middle" pointer-events="none" font-family="sans-serif" dy="2.03125" font-size="32.5" fill="#FFFFFF"/><text text-anchor="middle" pointer-events="none" y="5" font-size="10px" fill="#FFFFFF" font-family="sans-serif"> Vorst-Zuid/…</text></g><g class="node" transform="translate(778.378417503919,-224.79099119339628)"><circle class="outline" cx="0" cy="0" r="32.5" fill="#68BDF6" stroke="#5CA8DB" stroke-width="2px"/><text text-anchor="middle" pointer-events="none" font-family="sans-serif" dy="2.03125" font-size="32.5" fill="#FFFFFF"/><text text-anchor="middle" pointer-events="none" y="5" font-size="10px" fill="#FFFFFF" font-family="sans-serif"> Brussels-So…</text></g><g class="node" transform="translate(546.2735741604749,-12.25720824398482)"><circle class="outline" cx="0" cy="0" r="25" fill="#FF756E" stroke="#E06760" stroke-width="2px"/><text text-anchor="middle" pointer-events="none" font-family="sans-serif" dy="1.5625" font-size="25" fill="#FFFFFF"/><text text-anchor="middle" pointer-events="none" y="5" font-size="10px" fill="#FFFFFF" font-family="sans-serif"> HSL 1</text></g><g class="node" transform="translate(169.30597870116333,187.0666594774209)"><circle class="outline" cx="0" cy="0" r="25" fill="#FF756E" stroke="#E06760" stroke-width="2px"/><text text-anchor="middle" pointer-events="none" font-family="sans-serif" dy="1.5625" font-size="25" fill="#FFFFFF"/><text text-anchor="middle" pointer-events="none" font-family="sans-serif" dy="1.5625" font-size="25" fill="#FFFFFF"/><text text-anchor="middle" pointer-events="none" y="0" font-size="10px" fill="#FFFFFF" font-family="sans-serif"> Line 96</text><text text-anchor="middle" pointer-events="none" y="10" font-size="10px" fill="#FFFFFF" font-family="sans-serif"> (Infrabel)</text></g><g class="node" transform="translate(170.10583856430742,-184.76459986375866)"><circle class="outline" cx="0" cy="0" r="25" fill="#FF756E" stroke="#E06760" stroke-width="2px"/><text text-anchor="middle" pointer-events="none" font-family="sans-serif" dy="1.5625" font-size="25" fill="#FFFFFF"/><text text-anchor="middle" pointer-events="none" font-family="sans-serif" dy="1.5625" font-size="25" fill="#FFFFFF"/><text text-anchor="middle" pointer-events="none" y="0" font-size="10px" fill="#FFFFFF" font-family="sans-serif"> Line 94</text><text text-anchor="middle" pointer-events="none" y="10" font-size="10px" fill="#FFFFFF" font-family="sans-serif"> (Infrabel)</text></g><g class="node" transform="translate(-277.2468728326494,194.41780997536398)"><circle class="outline" cx="0" cy="0" r="25" fill="#FF756E" stroke="#E06760" stroke-width="2px"/><text text-anchor="middle" pointer-events="none" font-family="sans-serif" dy="1.5625" font-size="25" fill="#FFFFFF"/><text text-anchor="middle" pointer-events="none" font-family="sans-serif" dy="1.5625" font-size="25" fill="#FFFFFF"/><text text-anchor="middle" pointer-events="none" y="0" font-size="10px" fill="#FFFFFF" font-family="sans-serif"> Line 97</text><text text-anchor="middle" pointer-events="none" y="10" font-size="10px" fill="#FFFFFF" font-family="sans-serif"> (Infrabel)</text></g><g class="node" transform="translate(-26.88394130382136,-28.944201367860018)"><circle class="outline" cx="0" cy="0" r="25" fill="#FF756E" stroke="#E06760" stroke-width="2px"/><text text-anchor="middle" pointer-events="none" font-family="sans-serif" dy="1.5625" font-size="25" fill="#FFFFFF"/><text text-anchor="middle" pointer-events="none" font-family="sans-serif" dy="1.5625" font-size="25" fill="#FFFFFF"/><text text-anchor="middle" pointer-events="none" y="0" font-size="10px" fill="#FFFFFF" font-family="sans-serif"> Line 123</text><text text-anchor="middle" pointer-events="none" y="10" font-size="10px" fill="#FFFFFF" font-family="sans-serif"> (Infrabel)</text></g></g></svg>