<svg width="190pt" height="280pt" viewBox="0.00 0.00 189.55 280.00" xmlns="http://www.w3.org/2000/svg" xmlns:xlink="http://www.w3.org/1999/xlink">
<g id="graph0" class="graph" transform="scale(1 1) rotate(0) translate(4 276)">
<title>ConfigurationModels</title>
<polygon fill="white" stroke="none" points="-4,4 -4,-276 185.55,-276 185.55,4 -4,4"/>
<g id="clust1" class="cluster">
<title>cluster_new</title>
<polygon fill="none" stroke="white" points="8,-8 8,-264 173.55,-264 173.55,-8 8,-8"/>
<text text-anchor="middle" x="90.78" y="-247.4" font-family="Times,serif" font-size="14.00">New Configuration:</text>
<text text-anchor="middle" x="90.78" y="-230.6" font-family="Times,serif" font-size="14.00">Feature-Centric</text>
</g>
<!-- desktop_new -->
<g id="node1" class="node">
<title>desktop_new</title>
<polygon fill="none" stroke="black" points="75.55,-106 16,-106 16,-70 75.55,-70 75.55,-106"/>
<text text-anchor="middle" x="45.78" y="-83.8" font-family="Times,serif" font-size="14.00">desktop</text>
</g>
<!-- x13_new -->
<g id="node5" class="node">
<title>x13_new</title>
<polygon fill="none" stroke="black" points="165.55,-106 111.55,-106 111.55,-70 165.55,-70 165.55,-106"/>
<text text-anchor="middle" x="138.55" y="-83.8" font-family="Times,serif" font-size="14.00">x13</text>
</g>
<!-- desktop_new&#45;&gt;x13_new -->
<g id="edge1" class="edge">
<title>desktop_new-&gt;x13_new</title>
<path fill="none" stroke="black" d="M76,-88C83.59,-88 91.87,-88 99.84,-88"/>
<polygon fill="black" stroke="black" points="99.64,-91.5 109.64,-88 99.64,-84.5 99.64,-91.5"/>
</g>
<!-- x280_new -->
<g id="node6" class="node">
<title>x280_new</title>
<polygon fill="none" stroke="black" points="165.55,-160 111.55,-160 111.55,-124 165.55,-124 165.55,-160"/>
<text text-anchor="middle" x="138.55" y="-137.8" font-family="Times,serif" font-size="14.00">x280</text>
</g>
<!-- desktop_new&#45;&gt;x280_new -->
<g id="edge2" class="edge">
<title>desktop_new-&gt;x280_new</title>
<path fill="none" stroke="black" d="M76,-105.38C84.12,-110.21 93.03,-115.52 101.5,-120.55"/>
<polygon fill="black" stroke="black" points="99.46,-123.42 109.85,-125.52 103.04,-117.4 99.46,-123.42"/>
</g>
<!-- ssh_new -->
<g id="node2" class="node">
<title>ssh_new</title>
<polygon fill="none" stroke="black" points="72.78,-160 18.78,-160 18.78,-124 72.78,-124 72.78,-160"/>
<text text-anchor="middle" x="45.78" y="-137.8" font-family="Times,serif" font-size="14.00">ssh</text>
</g>
<!-- ssh_new&#45;&gt;x13_new -->
<g id="edge3" class="edge">
<title>ssh_new-&gt;x13_new</title>
<path fill="none" stroke="black" d="M73.03,-126.38C81.97,-121.06 92.12,-115.03 101.68,-109.34"/>
<polygon fill="black" stroke="black" points="103.25,-112.48 110.05,-104.36 99.67,-106.46 103.25,-112.48"/>
</g>
<!-- ssh_new&#45;&gt;x280_new -->
<g id="edge4" class="edge">
<title>ssh_new-&gt;x280_new</title>
<path fill="none" stroke="black" d="M73.03,-142C81.41,-142 90.84,-142 99.86,-142"/>
<polygon fill="black" stroke="black" points="99.84,-145.5 109.84,-142 99.84,-138.5 99.84,-145.5"/>
</g>
<!-- vpn_new -->
<g id="node3" class="node">
<title>vpn_new</title>
<polygon fill="none" stroke="black" points="72.78,-52 18.78,-52 18.78,-16 72.78,-16 72.78,-52"/>
<text text-anchor="middle" x="45.78" y="-29.8" font-family="Times,serif" font-size="14.00">vpn</text>
</g>
<!-- vpn_new&#45;&gt;x13_new -->
<g id="edge5" class="edge">
<title>vpn_new-&gt;x13_new</title>
<path fill="none" stroke="black" d="M73.03,-49.62C81.97,-54.94 92.12,-60.97 101.68,-66.66"/>
<polygon fill="black" stroke="black" points="99.67,-69.54 110.05,-71.64 103.25,-63.52 99.67,-69.54"/>
</g>
<!-- ai_new -->
<g id="node4" class="node">
<title>ai_new</title>
<polygon fill="none" stroke="black" points="72.78,-214 18.78,-214 18.78,-178 72.78,-178 72.78,-214"/>
<text text-anchor="middle" x="45.78" y="-191.8" font-family="Times,serif" font-size="14.00">ai</text>
</g>
<!-- ai_new&#45;&gt;x280_new -->
<g id="edge6" class="edge">
<title>ai_new-&gt;x280_new</title>
<path fill="none" stroke="black" d="M73.03,-180.38C81.97,-175.06 92.12,-169.03 101.68,-163.34"/>
<polygon fill="black" stroke="black" points="103.25,-166.48 110.05,-158.36 99.67,-160.46 103.25,-166.48"/>
</g>
</g>
</svg>