<svg width="211pt" height="280pt" viewBox="0.00 0.00 210.94 280.00" xmlns="http://www.w3.org/2000/svg" xmlns:xlink="http://www.w3.org/1999/xlink">
<g id="graph0" class="graph" transform="scale(1 1) rotate(0) translate(4 276)">
<title>ConfigurationModels</title>
<polygon fill="white" stroke="none" points="-4,4 -4,-276 206.94,-276 206.94,4 -4,4"/>
<g id="clust1" class="cluster">
<title>cluster_old</title>
<polygon fill="none" stroke="white" points="8,-8 8,-264 194.94,-264 194.94,-8 8,-8"/>
<text text-anchor="middle" x="101.47" y="-247.4" font-family="Times,serif" font-size="14.00">Old Configuration:</text>
<text text-anchor="middle" x="101.47" y="-230.6" font-family="Times,serif" font-size="14.00">Host-Centric</text>
</g>
<!-- x13_old -->
<g id="node1" class="node">
<title>x13_old</title>
<polygon fill="none" stroke="black" points="70,-106 16,-106 16,-70 70,-70 70,-106"/>
<text text-anchor="middle" x="43" y="-83.8" font-family="Times,serif" font-size="14.00">x13</text>
</g>
<!-- desktop_old -->
<g id="node3" class="node">
<title>desktop_old</title>
<polygon fill="none" stroke="black" points="186.94,-106 106,-106 106,-70 186.94,-70 186.94,-106"/>
<text text-anchor="middle" x="146.47" y="-83.8" font-family="Times,serif" font-size="14.00">desktop.nix</text>
</g>
<!-- x13_old&#45;&gt;desktop_old -->
<g id="edge1" class="edge">
<title>x13_old-&gt;desktop_old</title>
<path fill="none" stroke="black" d="M70.4,-88C77.82,-88 86.16,-88 94.51,-88"/>
<polygon fill="black" stroke="black" points="94.3,-91.5 104.3,-88 94.3,-84.5 94.3,-91.5"/>
</g>
<!-- ssh_old -->
<g id="node4" class="node">
<title>ssh_old</title>
<polygon fill="none" stroke="black" points="174.11,-160 118.83,-160 118.83,-124 174.11,-124 174.11,-160"/>
<text text-anchor="middle" x="146.47" y="-137.8" font-family="Times,serif" font-size="14.00">ssh.nix</text>
</g>
<!-- x13_old&#45;&gt;ssh_old -->
<g id="edge2" class="edge">
<title>x13_old-&gt;ssh_old</title>
<path fill="none" stroke="black" d="M70.4,-102.05C82.07,-108.26 96,-115.67 108.67,-122.42"/>
<polygon fill="black" stroke="black" points="106.69,-125.33 117.17,-126.94 109.98,-119.15 106.69,-125.33"/>
</g>
<!-- vpn_old -->
<g id="node5" class="node">
<title>vpn_old</title>
<polygon fill="none" stroke="black" points="175.67,-52 117.28,-52 117.28,-16 175.67,-16 175.67,-52"/>
<text text-anchor="middle" x="146.47" y="-29.8" font-family="Times,serif" font-size="14.00">vpn.nix</text>
</g>
<!-- x13_old&#45;&gt;vpn_old -->
<g id="edge3" class="edge">
<title>x13_old-&gt;vpn_old</title>
<path fill="none" stroke="black" d="M70.4,-73.95C81.59,-68 94.85,-60.94 107.1,-54.42"/>
<polygon fill="black" stroke="black" points="108.55,-57.61 115.74,-49.82 105.26,-51.43 108.55,-57.61"/>
</g>
<!-- x280_old -->
<g id="node2" class="node">
<title>x280_old</title>
<polygon fill="none" stroke="black" points="70,-160 16,-160 16,-124 70,-124 70,-160"/>
<text text-anchor="middle" x="43" y="-137.8" font-family="Times,serif" font-size="14.00">x280</text>
</g>
<!-- x280_old&#45;&gt;desktop_old -->
<g id="edge4" class="edge">
<title>x280_old-&gt;desktop_old</title>
<path fill="none" stroke="black" d="M70.4,-127.95C79.64,-123.03 90.31,-117.36 100.64,-111.86"/>
<polygon fill="black" stroke="black" points="102.28,-114.95 109.46,-107.16 98.99,-108.77 102.28,-114.95"/>
</g>
<!-- x280_old&#45;&gt;ssh_old -->
<g id="edge5" class="edge">
<title>x280_old-&gt;ssh_old</title>
<path fill="none" stroke="black" d="M70.4,-142C81.61,-142 94.9,-142 107.16,-142"/>
<polygon fill="black" stroke="black" points="106.99,-145.5 116.99,-142 106.99,-138.5 106.99,-145.5"/>
</g>
<!-- ai_old -->
<g id="node6" class="node">
<title>ai_old</title>
<polygon fill="none" stroke="black" points="173.47,-214 119.47,-214 119.47,-178 173.47,-178 173.47,-214"/>
<text text-anchor="middle" x="146.47" y="-191.8" font-family="Times,serif" font-size="14.00">ai.nix</text>
</g>
<!-- x280_old&#45;&gt;ai_old -->
<g id="edge6" class="edge">
<title>x280_old-&gt;ai_old</title>
<path fill="none" stroke="black" d="M70.4,-156.05C82.26,-162.36 96.44,-169.91 109.28,-176.74"/>
<polygon fill="black" stroke="black" points="107.4,-179.7 117.87,-181.31 110.69,-173.52 107.4,-179.7"/>
</g>
</g>
</svg>