<?xml version="1.0" encoding="UTF-8" standalone="no"?>
<!DOCTYPE svg PUBLIC "-//W3C//DTD SVG 1.1//EN"
 "http://www.w3.org/Graphics/SVG/1.1/DTD/svg11.dtd">
<!-- Generated by graphviz version 2.40.1 (20161225.0304)
 -->
<!-- Title: G Pages: 1 -->
<svg width="872pt" height="116pt"
 viewBox="0.00 0.00 871.60 116.00" xmlns="http://www.w3.org/2000/svg" xmlns:xlink="http://www.w3.org/1999/xlink">
<g id="graph0" class="graph" transform="scale(1 1) rotate(0) translate(4 112)">
<title>G</title>
<polygon fill="#ffffff" stroke="transparent" points="-4,4 -4,-112 867.5963,-112 867.5963,4 -4,4"/>
<!-- PHPTree -->
<g id="node1" class="node">
<title>PHPTree</title>
<ellipse fill="none" stroke="#000000" cx="394" cy="-90" rx="42.7926" ry="18"/>
<text text-anchor="middle" x="394" y="-86.3" font-family="Times,serif" font-size="14.00" fill="#000000">PHPTree</text>
</g>
<!-- is -->
<g id="node2" class="node">
<title>is</title>
<ellipse fill="none" stroke="#000000" cx="27" cy="-18" rx="27" ry="18"/>
<text text-anchor="middle" x="27" y="-14.3" font-family="Times,serif" font-size="14.00" fill="#000000">is</text>
</g>
<!-- PHPTree&#45;&gt;is -->
<g id="edge1" class="edge">
<title>PHPTree&#45;&gt;is</title>
<path fill="none" stroke="#000000" d="M351.5021,-87.18C287.5632,-82.0268 163.4157,-68.4632 63,-36 61.1051,-35.3874 59.1859,-34.6881 57.2713,-33.929"/>
<polygon fill="#000000" stroke="#000000" points="58.431,-30.6146 47.8707,-29.7597 55.593,-37.0135 58.431,-30.6146"/>
</g>
<!-- a -->
<g id="node3" class="node">
<title>a</title>
<ellipse fill="none" stroke="#000000" cx="99" cy="-18" rx="27" ry="18"/>
<text text-anchor="middle" x="99" y="-14.3" font-family="Times,serif" font-size="14.00" fill="#000000">a</text>
</g>
<!-- PHPTree&#45;&gt;a -->
<g id="edge2" class="edge">
<title>PHPTree&#45;&gt;a</title>
<path fill="none" stroke="#000000" d="M352.7461,-84.7534C300.8875,-77.4022 209.622,-61.9439 135,-36 133.1189,-35.346 131.2105,-34.6145 129.3042,-33.831"/>
<polygon fill="#000000" stroke="#000000" points="130.4799,-30.5216 119.9256,-29.5961 127.5991,-36.9014 130.4799,-30.5216"/>
</g>
<!-- fast -->
<g id="node4" class="node">
<title>fast</title>
<ellipse fill="none" stroke="#000000" cx="171" cy="-18" rx="27" ry="18"/>
<text text-anchor="middle" x="171" y="-14.3" font-family="Times,serif" font-size="14.00" fill="#000000">fast</text>
</g>
<!-- PHPTree&#45;&gt;fast -->
<g id="edge3" class="edge">
<title>PHPTree&#45;&gt;fast</title>
<path fill="none" stroke="#000000" d="M356.4362,-81.3006C318.1958,-71.9485 257.5186,-55.7331 207,-36 205.145,-35.2754 203.2568,-34.4891 201.3659,-33.6637"/>
<polygon fill="#000000" stroke="#000000" points="202.5716,-30.3644 192.0286,-29.3169 199.6172,-36.7104 202.5716,-30.3644"/>
</g>
<!-- and -->
<g id="node5" class="node">
<title>and</title>
<ellipse fill="none" stroke="#000000" cx="243" cy="-18" rx="27" ry="18"/>
<text text-anchor="middle" x="243" y="-14.3" font-family="Times,serif" font-size="14.00" fill="#000000">and</text>
</g>
<!-- PHPTree&#45;&gt;and -->
<g id="edge4" class="edge">
<title>PHPTree&#45;&gt;and</title>
<path fill="none" stroke="#000000" d="M365.0771,-76.6589C341.7646,-65.8479 308.1769,-50.1418 279,-36 277.2551,-35.1542 275.4654,-34.2803 273.6613,-33.3943"/>
<polygon fill="#000000" stroke="#000000" points="275.1741,-30.2379 264.6593,-28.9377 272.0683,-36.5112 275.1741,-30.2379"/>
</g>
<!-- fun -->
<g id="node6" class="node">
<title>fun</title>
<ellipse fill="none" stroke="#000000" cx="315" cy="-18" rx="27" ry="18"/>
<text text-anchor="middle" x="315" y="-14.3" font-family="Times,serif" font-size="14.00" fill="#000000">fun</text>
</g>
<!-- PHPTree&#45;&gt;fun -->
<g id="edge5" class="edge">
<title>PHPTree&#45;&gt;fun</title>
<path fill="none" stroke="#000000" d="M375.6772,-73.3008C364.6096,-63.2139 350.3928,-50.2567 338.5029,-39.4204"/>
<polygon fill="#000000" stroke="#000000" points="340.8306,-36.8063 331.0821,-32.6571 336.1154,-41.98 340.8306,-36.8063"/>
</g>
<!-- library -->
<g id="node7" class="node">
<title>library</title>
<ellipse fill="none" stroke="#000000" cx="394" cy="-18" rx="34.394" ry="18"/>
<text text-anchor="middle" x="394" y="-14.3" font-family="Times,serif" font-size="14.00" fill="#000000">library</text>
</g>
<!-- PHPTree&#45;&gt;library -->
<g id="edge6" class="edge">
<title>PHPTree&#45;&gt;library</title>
<path fill="none" stroke="#000000" d="M394,-71.8314C394,-64.131 394,-54.9743 394,-46.4166"/>
<polygon fill="#000000" stroke="#000000" points="397.5001,-46.4132 394,-36.4133 390.5001,-46.4133 397.5001,-46.4132"/>
</g>
<!-- to -->
<g id="node8" class="node">
<title>to</title>
<ellipse fill="none" stroke="#000000" cx="473" cy="-18" rx="27" ry="18"/>
<text text-anchor="middle" x="473" y="-14.3" font-family="Times,serif" font-size="14.00" fill="#000000">to</text>
</g>
<!-- PHPTree&#45;&gt;to -->
<g id="edge7" class="edge">
<title>PHPTree&#45;&gt;to</title>
<path fill="none" stroke="#000000" d="M412.3228,-73.3008C423.3904,-63.2139 437.6072,-50.2567 449.4971,-39.4204"/>
<polygon fill="#000000" stroke="#000000" points="451.8846,-41.98 456.9179,-32.6571 447.1694,-36.8063 451.8846,-41.98"/>
</g>
<!-- manipulate -->
<g id="node9" class="node">
<title>manipulate</title>
<ellipse fill="none" stroke="#000000" cx="568" cy="-18" rx="50.0912" ry="18"/>
<text text-anchor="middle" x="568" y="-14.3" font-family="Times,serif" font-size="14.00" fill="#000000">manipulate</text>
</g>
<!-- PHPTree&#45;&gt;manipulate -->
<g id="edge8" class="edge">
<title>PHPTree&#45;&gt;manipulate</title>
<path fill="none" stroke="#000000" d="M424.7072,-77.2936C452.735,-65.6959 494.423,-48.4457 525.6178,-35.5375"/>
<polygon fill="#000000" stroke="#000000" points="527.0334,-38.7396 534.9353,-31.6819 524.3569,-32.2715 527.0334,-38.7396"/>
</g>
<!-- trees -->
<g id="node10" class="node">
<title>trees</title>
<ellipse fill="none" stroke="#000000" cx="663" cy="-18" rx="27.0966" ry="18"/>
<text text-anchor="middle" x="663" y="-14.3" font-family="Times,serif" font-size="14.00" fill="#000000">trees</text>
</g>
<!-- PHPTree&#45;&gt;trees -->
<g id="edge9" class="edge">
<title>PHPTree&#45;&gt;trees</title>
<path fill="none" stroke="#000000" d="M434.402,-83.6237C481.5328,-75.507 561.3674,-59.638 627,-36 628.8244,-35.3429 630.6762,-34.6168 632.5282,-33.8443"/>
<polygon fill="#000000" stroke="#000000" points="634.0013,-37.0195 641.6619,-29.7006 631.1092,-30.6448 634.0013,-37.0195"/>
</g>
<!-- data -->
<g id="node11" class="node">
<title>data</title>
<ellipse fill="none" stroke="#000000" cx="735" cy="-18" rx="27" ry="18"/>
<text text-anchor="middle" x="735" y="-14.3" font-family="Times,serif" font-size="14.00" fill="#000000">data</text>
</g>
<!-- PHPTree&#45;&gt;data -->
<g id="edge10" class="edge">
<title>PHPTree&#45;&gt;data</title>
<path fill="none" stroke="#000000" d="M436.1282,-86.4123C495.8522,-80.4645 607.9954,-66.1015 699,-36 700.8908,-35.3746 702.8067,-34.6654 704.7188,-33.8987"/>
<polygon fill="#000000" stroke="#000000" points="706.4054,-36.9788 714.1127,-29.7092 703.5542,-30.5858 706.4054,-36.9788"/>
</g>
<!-- structure -->
<g id="node12" class="node">
<title>structure</title>
<ellipse fill="none" stroke="#000000" cx="822" cy="-18" rx="41.6928" ry="18"/>
<text text-anchor="middle" x="822" y="-14.3" font-family="Times,serif" font-size="14.00" fill="#000000">structure</text>
</g>
<!-- PHPTree&#45;&gt;structure -->
<g id="edge11" class="edge">
<title>PHPTree&#45;&gt;structure</title>
<path fill="none" stroke="#000000" d="M436.358,-86.6736C506.6687,-80.5441 651.5657,-65.3264 771,-36 774.3853,-35.1688 777.8613,-34.2001 781.3304,-33.1513"/>
<polygon fill="#000000" stroke="#000000" points="782.5648,-36.4308 791.0084,-30.031 780.4168,-29.7685 782.5648,-36.4308"/>
</g>
</g>
</svg>
