<?xml version="1.0" encoding="UTF-8" standalone="no"?>
<!DOCTYPE svg PUBLIC "-//W3C//DTD SVG 1.1//EN"
 "http://www.w3.org/Graphics/SVG/1.1/DTD/svg11.dtd">
<!-- Generated by graphviz version 2.40.1 (20161225.0304)
 -->
<!-- Title: G Pages: 1 -->
<svg width="108pt" height="836pt"
 viewBox="0.00 0.00 108.09 836.00" xmlns="http://www.w3.org/2000/svg" xmlns:xlink="http://www.w3.org/1999/xlink">
<g id="graph0" class="graph" transform="scale(1 1) rotate(0) translate(4 832)">
<title>G</title>
<polygon fill="#ffffff" stroke="transparent" points="-4,4 -4,-832 104.0911,-832 104.0911,4 -4,4"/>
<!-- PHPTree -->
<g id="node1" class="node">
<title>PHPTree</title>
<ellipse fill="none" stroke="#000000" cx="50.0456" cy="-810" rx="42.7926" ry="18"/>
<text text-anchor="middle" x="50.0456" y="-806.3" font-family="Times,serif" font-size="14.00" fill="#000000">PHPTree</text>
</g>
<!-- is -->
<g id="node2" class="node">
<title>is</title>
<ellipse fill="none" stroke="#000000" cx="50.0456" cy="-738" rx="27" ry="18"/>
<text text-anchor="middle" x="50.0456" y="-734.3" font-family="Times,serif" font-size="14.00" fill="#000000">is</text>
</g>
<!-- PHPTree&#45;&gt;is -->
<g id="edge1" class="edge">
<title>PHPTree&#45;&gt;is</title>
<path fill="none" stroke="#000000" d="M50.0456,-791.8314C50.0456,-784.131 50.0456,-774.9743 50.0456,-766.4166"/>
<polygon fill="#000000" stroke="#000000" points="53.5457,-766.4132 50.0456,-756.4133 46.5457,-766.4133 53.5457,-766.4132"/>
</g>
<!-- a -->
<g id="node3" class="node">
<title>a</title>
<ellipse fill="none" stroke="#000000" cx="50.0456" cy="-666" rx="27" ry="18"/>
<text text-anchor="middle" x="50.0456" y="-662.3" font-family="Times,serif" font-size="14.00" fill="#000000">a</text>
</g>
<!-- is&#45;&gt;a -->
<g id="edge2" class="edge">
<title>is&#45;&gt;a</title>
<path fill="none" stroke="#000000" d="M50.0456,-719.8314C50.0456,-712.131 50.0456,-702.9743 50.0456,-694.4166"/>
<polygon fill="#000000" stroke="#000000" points="53.5457,-694.4132 50.0456,-684.4133 46.5457,-694.4133 53.5457,-694.4132"/>
</g>
<!-- fast -->
<g id="node4" class="node">
<title>fast</title>
<ellipse fill="none" stroke="#000000" cx="50.0456" cy="-594" rx="27" ry="18"/>
<text text-anchor="middle" x="50.0456" y="-590.3" font-family="Times,serif" font-size="14.00" fill="#000000">fast</text>
</g>
<!-- a&#45;&gt;fast -->
<g id="edge3" class="edge">
<title>a&#45;&gt;fast</title>
<path fill="none" stroke="#000000" d="M50.0456,-647.8314C50.0456,-640.131 50.0456,-630.9743 50.0456,-622.4166"/>
<polygon fill="#000000" stroke="#000000" points="53.5457,-622.4132 50.0456,-612.4133 46.5457,-622.4133 53.5457,-622.4132"/>
</g>
<!-- and -->
<g id="node5" class="node">
<title>and</title>
<ellipse fill="none" stroke="#000000" cx="50.0456" cy="-522" rx="27" ry="18"/>
<text text-anchor="middle" x="50.0456" y="-518.3" font-family="Times,serif" font-size="14.00" fill="#000000">and</text>
</g>
<!-- fast&#45;&gt;and -->
<g id="edge4" class="edge">
<title>fast&#45;&gt;and</title>
<path fill="none" stroke="#000000" d="M50.0456,-575.8314C50.0456,-568.131 50.0456,-558.9743 50.0456,-550.4166"/>
<polygon fill="#000000" stroke="#000000" points="53.5457,-550.4132 50.0456,-540.4133 46.5457,-550.4133 53.5457,-550.4132"/>
</g>
<!-- fun -->
<g id="node6" class="node">
<title>fun</title>
<ellipse fill="none" stroke="#000000" cx="50.0456" cy="-450" rx="27" ry="18"/>
<text text-anchor="middle" x="50.0456" y="-446.3" font-family="Times,serif" font-size="14.00" fill="#000000">fun</text>
</g>
<!-- and&#45;&gt;fun -->
<g id="edge5" class="edge">
<title>and&#45;&gt;fun</title>
<path fill="none" stroke="#000000" d="M50.0456,-503.8314C50.0456,-496.131 50.0456,-486.9743 50.0456,-478.4166"/>
<polygon fill="#000000" stroke="#000000" points="53.5457,-478.4132 50.0456,-468.4133 46.5457,-478.4133 53.5457,-478.4132"/>
</g>
<!-- library -->
<g id="node7" class="node">
<title>library</title>
<ellipse fill="none" stroke="#000000" cx="50.0456" cy="-378" rx="34.394" ry="18"/>
<text text-anchor="middle" x="50.0456" y="-374.3" font-family="Times,serif" font-size="14.00" fill="#000000">library</text>
</g>
<!-- fun&#45;&gt;library -->
<g id="edge6" class="edge">
<title>fun&#45;&gt;library</title>
<path fill="none" stroke="#000000" d="M50.0456,-431.8314C50.0456,-424.131 50.0456,-414.9743 50.0456,-406.4166"/>
<polygon fill="#000000" stroke="#000000" points="53.5457,-406.4132 50.0456,-396.4133 46.5457,-406.4133 53.5457,-406.4132"/>
</g>
<!-- to -->
<g id="node8" class="node">
<title>to</title>
<ellipse fill="none" stroke="#000000" cx="50.0456" cy="-306" rx="27" ry="18"/>
<text text-anchor="middle" x="50.0456" y="-302.3" font-family="Times,serif" font-size="14.00" fill="#000000">to</text>
</g>
<!-- library&#45;&gt;to -->
<g id="edge7" class="edge">
<title>library&#45;&gt;to</title>
<path fill="none" stroke="#000000" d="M50.0456,-359.8314C50.0456,-352.131 50.0456,-342.9743 50.0456,-334.4166"/>
<polygon fill="#000000" stroke="#000000" points="53.5457,-334.4132 50.0456,-324.4133 46.5457,-334.4133 53.5457,-334.4132"/>
</g>
<!-- manipulate -->
<g id="node9" class="node">
<title>manipulate</title>
<ellipse fill="none" stroke="#000000" cx="50.0456" cy="-234" rx="50.0912" ry="18"/>
<text text-anchor="middle" x="50.0456" y="-230.3" font-family="Times,serif" font-size="14.00" fill="#000000">manipulate</text>
</g>
<!-- to&#45;&gt;manipulate -->
<g id="edge8" class="edge">
<title>to&#45;&gt;manipulate</title>
<path fill="none" stroke="#000000" d="M50.0456,-287.8314C50.0456,-280.131 50.0456,-270.9743 50.0456,-262.4166"/>
<polygon fill="#000000" stroke="#000000" points="53.5457,-262.4132 50.0456,-252.4133 46.5457,-262.4133 53.5457,-262.4132"/>
</g>
<!-- trees -->
<g id="node10" class="node">
<title>trees</title>
<ellipse fill="none" stroke="#000000" cx="50.0456" cy="-162" rx="27.0966" ry="18"/>
<text text-anchor="middle" x="50.0456" y="-158.3" font-family="Times,serif" font-size="14.00" fill="#000000">trees</text>
</g>
<!-- manipulate&#45;&gt;trees -->
<g id="edge9" class="edge">
<title>manipulate&#45;&gt;trees</title>
<path fill="none" stroke="#000000" d="M50.0456,-215.8314C50.0456,-208.131 50.0456,-198.9743 50.0456,-190.4166"/>
<polygon fill="#000000" stroke="#000000" points="53.5457,-190.4132 50.0456,-180.4133 46.5457,-190.4133 53.5457,-190.4132"/>
</g>
<!-- data -->
<g id="node11" class="node">
<title>data</title>
<ellipse fill="none" stroke="#000000" cx="50.0456" cy="-90" rx="27" ry="18"/>
<text text-anchor="middle" x="50.0456" y="-86.3" font-family="Times,serif" font-size="14.00" fill="#000000">data</text>
</g>
<!-- trees&#45;&gt;data -->
<g id="edge10" class="edge">
<title>trees&#45;&gt;data</title>
<path fill="none" stroke="#000000" d="M50.0456,-143.8314C50.0456,-136.131 50.0456,-126.9743 50.0456,-118.4166"/>
<polygon fill="#000000" stroke="#000000" points="53.5457,-118.4132 50.0456,-108.4133 46.5457,-118.4133 53.5457,-118.4132"/>
</g>
<!-- structure -->
<g id="node12" class="node">
<title>structure</title>
<ellipse fill="none" stroke="#000000" cx="50.0456" cy="-18" rx="41.6928" ry="18"/>
<text text-anchor="middle" x="50.0456" y="-14.3" font-family="Times,serif" font-size="14.00" fill="#000000">structure</text>
</g>
<!-- data&#45;&gt;structure -->
<g id="edge11" class="edge">
<title>data&#45;&gt;structure</title>
<path fill="none" stroke="#000000" d="M50.0456,-71.8314C50.0456,-64.131 50.0456,-54.9743 50.0456,-46.4166"/>
<polygon fill="#000000" stroke="#000000" points="53.5457,-46.4132 50.0456,-36.4133 46.5457,-46.4133 53.5457,-46.4132"/>
</g>
</g>
</svg>
